<svg width="14" height="14" viewBox="0 0 14 14" fill="none" xmlns="http://www.w3.org/2000/svg">
<g id="berries 1" clip-path="url(#clip0_1_588)">
<g id="Icons">
<path id="Vector" d="M3.93716 13.1617C3.936 13.1617 3.93553 13.1591 3.93436 13.158L1.1234 10.6363L1.12153 10.6352V10.6338C1.10981 10.623 1.09448 10.6171 1.0786 10.6172C1.06172 10.6172 1.04549 10.6237 1.03333 10.6354L0.466797 11.2001V13.5334H3.57923C3.62367 13.5333 3.66666 13.5175 3.70056 13.4888L3.93693 13.2891C3.94604 13.2814 3.95341 13.2719 3.95856 13.2612C3.9637 13.2504 3.9665 13.2387 3.96677 13.2268C3.96703 13.2149 3.96476 13.2031 3.9601 13.1922C3.95543 13.1812 3.94849 13.1714 3.93973 13.1633L3.93716 13.1617Z" fill="#93ACD3"/>
<path id="Vector_2" d="M13.4238 6.93481C13.3436 6.83929 13.2288 6.77947 13.1046 6.76845C12.9804 6.75742 12.8569 6.7961 12.7611 6.87601L10.7311 8.57584C10.7311 8.57841 10.7311 8.58098 10.7323 8.58378C10.7389 8.71034 10.7197 8.83694 10.6759 8.95585C10.632 9.07476 10.5644 9.18348 10.4771 9.2754C10.3898 9.36731 10.2848 9.44049 10.1683 9.49047C10.0518 9.54045 9.92639 9.56619 9.79965 9.56611H7.23298C7.1711 9.56611 7.11175 9.54153 7.06799 9.49777C7.02423 9.45401 6.99965 9.39466 6.99965 9.33278C6.99965 9.27089 7.02423 9.21154 7.06799 9.16778C7.11175 9.12402 7.1711 9.09944 7.23298 9.09944H9.79965C9.86295 9.09952 9.9256 9.08672 9.9838 9.06182C10.042 9.03693 10.0945 9.00045 10.1382 8.95461C10.1818 8.90878 10.2157 8.85454 10.2377 8.7952C10.2598 8.73586 10.2695 8.67266 10.2663 8.60944C10.2652 8.59288 10.2635 8.57444 10.2605 8.55531C10.2588 8.54869 10.2575 8.54199 10.2565 8.53524C10.2268 8.42762 10.1622 8.33295 10.0727 8.26612C9.9833 8.19929 9.87418 8.1641 9.76255 8.16611H7.38465C7.22673 8.1678 7.07311 8.1147 6.94995 8.01584C6.70156 7.81013 6.38883 7.69815 6.06632 7.69944C5.57441 7.68556 5.08515 7.77626 4.6309 7.96555C4.17666 8.15484 3.76777 8.43841 3.43128 8.79751C3.34705 8.88198 2.85332 9.48701 2.48535 9.94318L4.48968 11.7468L5.23938 10.9962C5.4087 10.828 5.6375 10.7334 5.87615 10.7328H10.033C10.2043 10.7273 10.3668 10.6556 10.4864 10.5328L13.3993 7.56948C13.4804 7.48506 13.5277 7.37379 13.5322 7.2568C13.5367 7.13981 13.4982 7.02523 13.4238 6.93481Z" fill="#93ACD3"/>
<path id="Vector_3" d="M1.98858 10.1267C1.98278 10.1203 1.97549 10.1154 1.96735 10.1125C1.95921 10.1096 1.95048 10.1087 1.94192 10.1099C1.93379 10.1103 1.92582 10.1123 1.91849 10.1159C1.91116 10.1194 1.9046 10.1244 1.89922 10.1305L1.61035 10.4464L4.07995 12.6614L4.36672 12.349C4.37741 12.3362 4.38276 12.3199 4.38168 12.3033C4.38059 12.2866 4.37314 12.2711 4.36089 12.2599L1.98858 10.1267Z" fill="#93ACD3"/>
<path id="Vector_4" d="M9.80025 4.20031C9.80087 4.02651 9.75295 3.85599 9.66188 3.70796C9.57081 3.55993 9.44022 3.44027 9.28481 3.36245C9.1294 3.28463 8.95535 3.25176 8.78227 3.26752C8.60918 3.28328 8.44394 3.34706 8.30515 3.45168C8.16636 3.55629 8.05953 3.69758 7.99671 3.85963C7.93388 4.02168 7.91755 4.19805 7.94956 4.36888C7.98156 4.53971 8.06063 4.69821 8.17785 4.82652C8.29508 4.95484 8.44581 5.04787 8.61305 5.09515C8.73564 4.89816 8.90526 4.73473 9.10667 4.61955C9.30807 4.50437 9.53495 4.44105 9.76689 4.43528C9.78783 4.35867 9.79904 4.27973 9.80025 4.20031Z" fill="#93ACD3"/>
<path id="Vector_5" d="M9.80052 6.76706C10.316 6.76706 10.7339 6.34919 10.7339 5.83372C10.7339 5.31826 10.316 4.90039 9.80052 4.90039C9.28506 4.90039 8.86719 5.31826 8.86719 5.83372C8.86719 6.34919 9.28506 6.76706 9.80052 6.76706Z" fill="#93ACD3"/>
<path id="Vector_6" d="M11.1574 5.49437C11.3442 5.39967 11.4936 5.24471 11.5815 5.05456C11.6693 4.86441 11.6905 4.65019 11.6415 4.44653C11.5925 4.24287 11.4763 4.06169 11.3116 3.93228C11.1469 3.80287 10.9433 3.7328 10.7339 3.7334C10.5537 3.73316 10.3774 3.78644 10.2275 3.88647C10.2783 4.0885 10.2804 4.29971 10.2336 4.5027C10.4587 4.57664 10.6615 4.70635 10.823 4.87974C10.9845 5.05313 11.0996 5.26457 11.1574 5.49437Z" fill="#93ACD3"/>
<path id="Vector_7" d="M10.7334 3.033C10.7346 3.11241 10.7458 3.19136 10.7668 3.26797C10.9987 3.27373 11.2256 3.33706 11.427 3.45224C11.6284 3.56742 11.798 3.73085 11.9206 3.92783C12.0874 3.88034 12.2375 3.78727 12.3543 3.65909C12.4711 3.53091 12.5497 3.3727 12.5815 3.20225C12.6133 3.0318 12.5968 2.85587 12.5341 2.69424C12.4713 2.53261 12.3647 2.39169 12.2263 2.28733C12.0878 2.18297 11.923 2.11931 11.7503 2.10349C11.5777 2.08768 11.404 2.12035 11.2489 2.19783C11.0938 2.2753 10.9634 2.39451 10.8723 2.54205C10.7812 2.6896 10.7331 2.85962 10.7334 3.033Z" fill="#93ACD3"/>
<path id="Vector_8" d="M8.40043 1.63301C8.69386 1.63333 8.97968 1.72634 9.2171 1.89877C9.3268 1.81951 9.44746 1.75663 9.57527 1.71211C9.55533 1.45787 9.61111 1.20342 9.73557 0.98084C9.70952 0.959262 9.68217 0.939313 9.65367 0.921107C9.40165 0.766045 9.1107 0.685923 8.81483 0.690107C8.51597 0.681659 8.22014 0.627764 7.9375 0.530273C7.94733 0.916026 8.02875 1.29659 8.1776 1.65261C8.25123 1.64009 8.32575 1.63353 8.40043 1.63301Z" fill="#93ACD3"/>
<path id="Vector_9" d="M11.6672 1.63324C11.7421 1.63371 11.8169 1.64026 11.8908 1.65284C12.0398 1.2968 12.1214 0.916138 12.1313 0.530273C11.8486 0.627824 11.5527 0.681797 11.2538 0.69034C10.9579 0.686157 10.6669 0.766279 10.4149 0.92134C10.2941 0.99541 10.1953 1.10051 10.1288 1.22571C10.0623 1.35091 10.0306 1.49163 10.0369 1.63324C10.3293 1.6342 10.614 1.72718 10.8506 1.89901C11.0879 1.72652 11.3738 1.6335 11.6672 1.63324Z" fill="#93ACD3"/>
<path id="Vector_10" d="M8.65127 2.81794C8.68338 2.6089 8.76279 2.40995 8.88344 2.23624C8.70174 2.12687 8.48822 2.08263 8.27802 2.11082C8.06783 2.13901 7.87351 2.23794 7.72705 2.39133C7.5806 2.54471 7.49074 2.7434 7.47229 2.95467C7.45384 3.16594 7.50789 3.37719 7.62554 3.55364C7.72711 3.35937 7.87281 3.19162 8.05094 3.06385C8.22908 2.93609 8.43469 2.85186 8.65127 2.81794Z" fill="#93ACD3"/>
<path id="Vector_11" d="M9.125 2.82674C9.3128 2.8629 9.49128 2.93693 9.64953 3.04432C9.80779 3.15171 9.94252 3.29021 10.0455 3.45137C10.127 3.40546 10.213 3.36801 10.3022 3.3396C10.2591 3.15082 10.256 2.9551 10.2931 2.76506C10.3303 2.57501 10.4068 2.39485 10.5178 2.23617C10.3916 2.15901 10.2488 2.11306 10.1014 2.10214C9.95387 2.09123 9.8059 2.11566 9.66975 2.17341C9.5336 2.23116 9.41319 2.32057 9.31853 2.43419C9.22387 2.54782 9.15768 2.68239 9.12547 2.82674H9.125Z" fill="#93ACD3"/>
</g>
</g>
<defs>
<clipPath id="clip0_1_588">
<rect width="14" height="14" fill="white"/>
</clipPath>
</defs>
</svg>
