<svg width="14" height="14" viewBox="0 0 14 14" fill="none" xmlns="http://www.w3.org/2000/svg">
<path d="M12.7043 2.13576L11.3297 1.94238C11.3598 2.07069 11.3752 2.20201 11.3755 2.3338V10.7921C11.375 11.2561 11.1905 11.701 10.8624 12.0291C10.5343 12.3571 10.0895 12.5417 9.62548 12.5421H9.20898L11.2025 12.8224C11.3543 12.8438 11.5087 12.835 11.6571 12.7966C11.8054 12.7583 11.9447 12.691 12.0671 12.5988C12.1895 12.5066 12.2925 12.3912 12.3702 12.2591C12.448 12.1271 12.499 11.981 12.5203 11.8293L13.6974 3.45322C13.7404 3.14682 13.66 2.83588 13.4737 2.58882C13.2875 2.34175 13.0107 2.17878 12.7043 2.13576Z" fill="#93ACD3"/>
<path d="M9.62511 1.16699H7.70215C7.88693 1.30382 8.04286 1.4758 8.16098 1.67305C8.27911 1.87031 8.3571 2.08896 8.39048 2.31645L9.56677 10.6925C9.63056 11.1393 9.51813 11.5933 9.25323 11.9587H9.62511C9.93453 11.9587 10.2313 11.8357 10.4501 11.617C10.6689 11.3982 10.7918 11.1014 10.7918 10.792V2.33366C10.7918 2.02424 10.6689 1.72749 10.4501 1.5087C10.2313 1.28991 9.93453 1.16699 9.62511 1.16699Z" fill="#93ACD3"/>
<path d="M8.98957 10.7736L7.81241 2.39755C7.76903 2.09142 7.60592 1.81502 7.35889 1.62908C7.11186 1.44314 6.80113 1.36286 6.49495 1.40588L1.29599 2.13534C0.989858 2.17871 0.713463 2.34183 0.527522 2.58886C0.341581 2.83589 0.261302 3.14662 0.304321 3.4528L1.48003 11.8289C1.50133 11.9806 1.55231 12.1267 1.63007 12.2587C1.70782 12.3908 1.81083 12.5062 1.93319 12.5984C2.05556 12.6906 2.1949 12.7578 2.34324 12.7962C2.49159 12.8346 2.64604 12.8433 2.79778 12.822L7.99674 12.0911C8.30308 12.048 8.57977 11.885 8.76595 11.6379C8.95214 11.3909 9.03257 11.08 8.98957 10.7736ZM2.61199 4.27559C2.5804 4.29729 2.54484 4.31255 2.50734 4.32049C2.46985 4.32844 2.43116 4.32892 2.39348 4.3219C2.3558 4.31489 2.31987 4.30052 2.28775 4.27961C2.25563 4.2587 2.22795 4.23167 2.20628 4.20005L1.98315 3.87543L1.85745 4.24993C1.83281 4.32341 1.77999 4.3841 1.7106 4.41864C1.64122 4.45319 1.56095 4.45875 1.48747 4.43411C1.41398 4.40948 1.35329 4.35665 1.31875 4.28727C1.28421 4.21789 1.27864 4.13762 1.30328 4.06413L1.61478 3.13693C1.63508 3.08839 1.66767 3.04596 1.70932 3.01383C1.75098 2.98169 1.80028 2.96093 1.85238 2.95361C1.90448 2.94628 1.9576 2.95264 2.0065 2.97204C2.0554 2.99145 2.09842 3.02324 2.13132 3.0643L2.68549 3.86988C2.72951 3.93344 2.7465 4.01188 2.73272 4.08795C2.71893 4.16403 2.67551 4.23152 2.61199 4.27559ZM6.11986 7.17972L5.23699 8.35134C5.14386 8.47479 5.00552 8.55622 4.85238 8.57771C4.69924 8.5992 4.54384 8.55901 4.42032 8.46597L3.2484 7.58338C3.0313 7.41976 2.88807 7.1766 2.85022 6.90739C2.81237 6.63817 2.883 6.36495 3.04657 6.1478C3.21029 5.93072 3.45352 5.78754 3.72278 5.74975C3.99204 5.71195 4.26529 5.78264 4.48245 5.94626C4.56261 5.8365 4.6638 5.74377 4.78013 5.67347C4.89646 5.60318 5.02561 5.55671 5.16006 5.53679C5.29451 5.51686 5.43158 5.52387 5.5633 5.5574C5.69502 5.59093 5.81875 5.65032 5.9273 5.73212C6.03586 5.81391 6.12707 5.91647 6.19562 6.03384C6.26417 6.1512 6.3087 6.28103 6.32662 6.41576C6.34454 6.55049 6.33549 6.68745 6.29999 6.81865C6.2645 6.94985 6.20327 7.07269 6.11986 7.18001V7.17972ZM7.98916 10.1623L7.67766 11.0898C7.66043 11.1412 7.62923 11.1868 7.58755 11.2214C7.54587 11.256 7.49537 11.2784 7.4417 11.2859C7.38803 11.2935 7.33332 11.2859 7.28371 11.2641C7.23409 11.2423 7.19154 11.2071 7.16082 11.1624L6.60666 10.3566C6.5628 10.2928 6.54605 10.2143 6.56011 10.1382C6.57417 10.0621 6.61787 9.9947 6.68161 9.95084C6.74535 9.90698 6.82391 9.89024 6.89999 9.9043C6.97608 9.91835 7.04346 9.96206 7.08732 10.0258L7.31132 10.351L7.43703 9.97651C7.46167 9.90302 7.51449 9.84233 7.58387 9.80779C7.61823 9.79069 7.65562 9.78052 7.6939 9.77786C7.73219 9.77521 7.77062 9.78012 7.80701 9.79232C7.8434 9.80452 7.87703 9.82377 7.90597 9.84896C7.93492 9.87416 7.95863 9.90481 7.97573 9.93916C7.99283 9.97352 8.003 10.0109 8.00566 10.0492C8.00831 10.0875 8.0034 10.1259 7.9912 10.1623H7.98916Z" fill="#93ACD3"/>
</svg>
