<svg width="17" height="18" viewBox="0 0 17 18" fill="none" xmlns="http://www.w3.org/2000/svg">
<g id="casino-chip (3) 1" clip-path="url(#clip0_1_787)">
<g id="Group">
<g id="11-Casino chip">
<path id="Vector" d="M3.98438 14.8936L3.09984 15.3371L2.65625 16.2217L2.21266 15.3371L1.32812 14.8936L2.21266 14.45L2.65625 13.5654L3.09984 14.45L3.98438 14.8936ZM15.6719 2.6748L14.7873 3.1184L14.3438 4.00293L13.9002 3.1184L13.0156 2.6748L13.9002 2.23121L14.3438 1.34668L14.7873 2.23121L15.6719 2.6748Z" fill="#FF9C00"/>
<path id="Vector_2" d="M10.625 15.1592C12.9722 15.1592 14.875 13.2564 14.875 10.9092C14.875 8.56197 12.9722 6.65918 10.625 6.65918C8.27779 6.65918 6.375 8.56197 6.375 10.9092C6.375 13.2564 8.27779 15.1592 10.625 15.1592Z" fill="#FFC052"/>
<path id="Vector_3" d="M14.875 10.9092C14.875 12.0363 14.4273 13.1174 13.6302 13.9144C12.8332 14.7114 11.7522 15.1592 10.625 15.1592C9.49786 15.1592 8.41686 14.7114 7.61983 13.9144C6.8228 13.1174 6.37503 12.0363 6.37503 10.9092C6.37448 10.7761 6.38068 10.6432 6.39363 10.5107C6.49253 11.5645 6.98107 12.5435 7.76367 13.2561C8.54628 13.9687 9.56661 14.3636 10.625 14.3636C11.6835 14.3636 12.7038 13.9687 13.4864 13.2561C14.269 12.5435 14.7575 11.5645 14.8564 10.5107C14.8694 10.6432 14.8756 10.7761 14.875 10.9092Z" fill="#F0A53B"/>
<path id="Vector_4" d="M14.9441 6.59017C15.5123 7.15668 15.9629 7.82988 16.2702 8.57108C16.5774 9.31228 16.7352 10.1069 16.7344 10.9092H16.2031C16.2043 10.1767 16.0602 9.45117 15.7794 8.77459C15.4986 8.09801 15.0865 7.48377 14.5669 6.96736L14.9441 6.59017ZM10.625 16.4874C11.3576 16.4885 12.0831 16.3445 12.7597 16.0636C13.4362 15.7828 14.0505 15.3707 14.5669 14.8511L14.9441 15.2283C14.3776 15.7965 13.7044 16.2471 12.9632 16.5544C12.222 16.8616 11.4274 17.0194 10.625 17.0186V16.4874ZM6.68314 14.8511L6.30595 15.2283C5.56062 14.4848 5.02146 13.5603 4.74142 12.5455C4.59047 12.0132 4.51448 11.4625 4.51564 10.9092H5.04689C5.04576 11.6418 5.18978 12.3673 5.47062 13.0439C5.75146 13.7205 6.16357 14.3347 6.68314 14.8511ZM10.625 4.79986V5.33111C9.89246 5.32998 9.16695 5.474 8.49037 5.75484C7.81379 6.03569 7.19955 6.44779 6.68314 6.96736L6.30595 6.59017C7.27548 5.62051 8.5434 5.00573 9.90517 4.84502C10.1438 4.81386 10.3843 4.79877 10.625 4.79986Z" fill="#FFAF3F"/>
<path id="Vector_5" d="M6.68318 14.8511C7.19959 15.3706 7.81383 15.7827 8.49041 16.0636C9.16699 16.3444 9.8925 16.4884 10.6251 16.4873V17.0186C9.8227 17.0193 9.0281 16.8616 8.2869 16.5543C7.5457 16.2471 6.8725 15.7964 6.30599 15.2282L6.68318 14.8511ZM6.68318 6.9673C6.16361 7.48372 5.75151 8.09795 5.47066 8.77453C5.18982 9.45111 5.0458 10.1766 5.04693 10.9092H4.51568C4.51459 10.6685 4.52968 10.428 4.56084 10.1893C4.6667 9.26793 4.98395 8.38343 5.48787 7.6048C5.72379 7.2385 5.99805 6.89835 6.30599 6.59012L6.68318 6.9673ZM12.2613 5.02559C13.2761 5.30563 14.2006 5.84479 14.9441 6.59012L14.5669 6.9673C14.0505 6.44774 13.4363 6.03563 12.7597 5.75479C12.0831 5.47394 11.3576 5.32993 10.6251 5.33105V4.7998C10.803 4.7998 10.9783 4.80777 11.151 4.82371C11.5269 4.85402 11.8988 4.92164 12.2613 5.02559ZM16.2032 10.9092H16.7344C16.7352 11.7115 16.5774 12.5061 16.2702 13.2473C15.963 13.9885 15.5123 14.6617 14.9441 15.2282L14.5669 14.8511C15.0865 14.3346 15.4986 13.7204 15.7794 13.0438C16.0603 12.3672 16.2043 11.6417 16.2032 10.9092Z" fill="#F09413"/>
<path id="Vector_6" d="M15.6719 10.9092H16.2031C16.2043 11.6417 16.0602 12.3673 15.7794 13.0438C15.4986 13.7204 15.0864 14.3346 14.5669 14.8511L14.1923 14.4765L13.6744 13.9586L13.6319 13.9161C14.0266 13.5212 14.3395 13.0524 14.5528 12.5364C14.7662 12.0205 14.8756 11.4675 14.875 10.9092H15.6719ZM7.57563 13.9586L7.61813 13.9161C8.013 14.3108 8.48183 14.6237 8.99779 14.837C9.51374 15.0503 10.0667 15.1598 10.625 15.1592V16.4873C9.89246 16.4884 9.16694 16.3444 8.49036 16.0636C7.81378 15.7827 7.19955 15.3706 6.68313 14.8511L7.05766 14.4765L7.57563 13.9586ZM7.57563 7.85981L7.61813 7.90231C7.22343 8.29718 6.91047 8.76601 6.69716 9.28197C6.48385 9.79792 6.37438 10.3509 6.37501 10.9092H5.04688C5.04575 10.1766 5.18977 9.45112 5.47061 8.77454C5.75146 8.09796 6.16356 7.48373 6.68313 6.96731L7.05766 7.34184L7.57563 7.85981ZM13.6744 7.85981L13.6319 7.90231C13.237 7.50761 12.7682 7.19465 12.2522 6.98134C11.7363 6.76803 11.1833 6.65856 10.625 6.65919V5.33106C11.3576 5.32993 12.0831 5.47395 12.7597 5.75479C13.4362 6.03564 14.0505 6.44774 14.5669 6.96731L14.1923 7.34184L13.6744 7.85981Z" fill="#FFAF3F"/>
<path id="Vector_7" d="M7.61813 13.9161L7.57563 13.9586L7.05766 14.4765L6.68313 14.8511C6.16356 14.3346 5.75146 13.7204 5.47061 13.0438C5.18977 12.3673 5.04575 11.6417 5.04688 10.9092H6.37501C6.37438 11.4675 6.48385 12.0205 6.69716 12.5364C6.91047 13.0524 7.22343 13.5212 7.61813 13.9161ZM10.625 5.86231V6.65919C10.0667 6.65856 9.51374 6.76803 8.99779 6.98134C8.48183 7.19465 8.013 7.50761 7.61813 7.90231L7.57563 7.85981L7.05766 7.34184L6.68313 6.96731C7.19955 6.44774 7.81378 6.03564 8.49036 5.75479C9.16694 5.47395 9.89246 5.32993 10.625 5.33106V5.86231ZM16.2031 10.9092H14.875C14.8756 10.3509 14.7662 9.79792 14.5528 9.28197C14.3395 8.76601 14.0266 8.29718 13.6319 7.90231L13.6744 7.85981L14.1923 7.34184L14.5669 6.96731C15.0864 7.48373 15.4986 8.09796 15.7794 8.77454C16.0602 9.45112 16.2043 10.1766 16.2031 10.9092ZM14.1923 14.4765L14.5669 14.8511C14.0505 15.3706 13.4362 15.7827 12.7597 16.0636C12.0831 16.3444 11.3576 16.4884 10.625 16.4873V15.1592C11.1833 15.1598 11.7363 15.0503 12.2522 14.837C12.7682 14.6237 13.237 14.3108 13.6319 13.9161L13.6744 13.9586L14.1923 14.4765Z" fill="#FFCB52"/>
<path id="Vector_8" d="M10.625 6.65918C9.78443 6.65918 8.96274 6.90844 8.26383 7.37543C7.56492 7.84243 7.02019 8.50619 6.69851 9.28277C6.37684 10.0594 6.29268 10.9139 6.45666 11.7383C6.62065 12.5627 7.02542 13.32 7.6198 13.9144C8.21417 14.5088 8.97145 14.9135 9.79587 15.0775C10.6203 15.2415 11.4748 15.1573 12.2514 14.8357C13.028 14.514 13.6918 13.9693 14.1587 13.2704C14.6257 12.5714 14.875 11.7498 14.875 10.9092C14.875 9.78201 14.4272 8.70101 13.6302 7.90398C12.8332 7.10695 11.7522 6.65918 10.625 6.65918ZM10.625 14.8936C9.83697 14.8936 9.06663 14.6599 8.4114 14.2221C7.75617 13.7843 7.24549 13.162 6.94392 12.4339C6.64235 11.7059 6.56345 10.9048 6.71719 10.1319C6.87092 9.35897 7.2504 8.64903 7.80762 8.0918C8.36485 7.53458 9.0748 7.1551 9.84769 7.00136C10.6206 6.84763 11.4217 6.92653 12.1498 7.2281C12.8778 7.52967 13.5001 8.04035 13.9379 8.69558C14.3757 9.35081 14.6094 10.1211 14.6094 10.9092C14.6094 11.9659 14.1896 12.9793 13.4424 13.7266C12.6952 14.4738 11.6817 14.8936 10.625 14.8936Z" fill="#C97C10"/>
<path id="Vector_9" d="M10.8909 10.6431V9.58059H11.6878V9.04934H10.8909V8.51809H10.3597V9.04934C10.0779 9.04934 9.80765 9.16128 9.60839 9.36054C9.40913 9.5598 9.29719 9.83005 9.29719 10.1118C9.29719 10.3936 9.40913 10.6639 9.60839 10.8631C9.80765 11.0624 10.0779 11.1743 10.3597 11.1743V12.2368H9.56282V12.7681H10.3597V13.2993H10.8909V12.7681C11.1727 12.7681 11.443 12.6561 11.6422 12.4569C11.8415 12.2576 11.9534 11.9874 11.9534 11.7056C11.9534 11.4238 11.8415 11.1535 11.6422 10.9543C11.443 10.755 11.1727 10.6431 10.8909 10.6431ZM9.98436 10.4872C9.9102 10.4129 9.8597 10.3183 9.83926 10.2153C9.81881 10.1123 9.82933 10.0056 9.86949 9.90862C9.90964 9.81163 9.97764 9.72871 10.0649 9.67033C10.1521 9.61194 10.2547 9.58072 10.3597 9.58059V10.6431C10.2899 10.6432 10.2208 10.6295 10.1564 10.6027C10.092 10.576 10.0335 10.5367 9.98436 10.4872ZM11.2663 12.0809C11.2171 12.1304 11.1586 12.1697 11.0942 12.1965C11.0298 12.2232 10.9607 12.237 10.8909 12.2368V11.1743C10.9959 11.1745 11.0985 11.2057 11.1857 11.2641C11.273 11.3225 11.341 11.4054 11.3811 11.5024C11.4213 11.5994 11.4318 11.7061 11.4114 11.8091C11.3909 11.912 11.3404 12.0066 11.2663 12.0809ZM12.7522 10.9233C12.6908 11.3339 12.5462 11.7275 12.3272 12.0801C12.2561 12.1657 12.2191 12.2746 12.2233 12.3859C12.2464 12.4664 12.2979 12.5358 12.3683 12.5811C12.5048 12.6748 12.6611 12.7357 12.825 12.7591C12.9889 12.7825 13.1559 12.7677 13.3132 12.716C13.6233 12.6123 13.8897 12.4074 14.0697 12.1343C14.2327 11.9086 14.3269 11.6405 14.341 11.3625C14.3552 11.0844 14.2886 10.8082 14.1494 10.5671C14.0363 10.3821 13.8659 10.239 13.6641 10.1597C13.5528 10.1202 13.4345 10.1041 13.3167 10.1126C13.1989 10.1211 13.0841 10.1538 12.9795 10.2088C12.7787 10.3575 12.784 10.7074 12.7522 10.9233ZM9.08469 9.16595C8.78835 9.36195 8.53525 9.6165 8.34094 9.91395C8.28941 9.99364 8.23469 10.081 8.14092 10.1055C8.06871 10.1182 7.99431 10.1056 7.93028 10.0699C7.80492 10.006 7.69633 9.91359 7.61327 9.80003C7.53022 9.68648 7.47503 9.55498 7.45216 9.41617C7.41181 9.1453 7.46825 8.86887 7.61153 8.63549C7.73171 8.42638 7.90819 8.25521 8.12087 8.14147C8.33356 8.02773 8.5739 7.976 8.81455 7.99215C9.00289 8.00676 9.18191 8.08006 9.32641 8.20173C9.40045 8.2682 9.45937 8.34979 9.49919 8.44098C9.53901 8.53216 9.5588 8.63083 9.55724 8.73032C9.52032 8.93539 9.24247 9.06182 9.08469 9.16595Z" fill="#FFDF75"/>
<path id="Vector_10" d="M14.3815 14.6657L14.5674 14.8516C15.0869 14.3351 15.499 13.7207 15.7797 13.0441C16.0605 12.3674 16.2044 11.6418 16.2031 10.9092H15.9375C15.9384 11.607 15.8014 12.298 15.5344 12.9427C15.2673 13.5874 14.8755 14.1729 14.3815 14.6657ZM6.86854 14.6657L6.6826 14.8516C7.19912 15.3711 7.81346 15.7832 8.49014 16.0639C9.16681 16.3447 9.8924 16.4886 10.625 16.4873V16.2217C9.92723 16.2226 9.23616 16.0856 8.5915 15.8185C7.94684 15.5515 7.3613 15.1597 6.86854 14.6657ZM6.86854 7.15272L6.6826 6.96678C6.16307 7.4833 5.75102 8.09764 5.47027 8.77432C5.18951 9.45099 5.04562 10.1766 5.04688 10.9092H5.31251C5.31162 10.2114 5.44863 9.52034 5.71566 8.87568C5.9827 8.23102 6.3745 7.64548 6.86854 7.15272ZM14.3815 7.15272L14.5674 6.96678C14.0509 6.44725 13.4366 6.0352 12.7599 5.75445C12.0832 5.47369 11.3576 5.32979 10.625 5.33106V5.59669C11.3228 5.5958 12.0139 5.73281 12.6585 5.99984C13.3032 6.26688 13.8887 6.65868 14.3815 7.15272Z" fill="#FAD039"/>
<path id="Vector_11" d="M5.31251 10.9092H5.04688C5.04575 11.6417 5.18977 12.3673 5.47061 13.0438C5.75146 13.7204 6.16356 14.3346 6.68313 14.8511L6.86907 14.6651C6.37499 14.1725 5.98313 13.587 5.71601 12.9425C5.44888 12.2979 5.31176 11.6069 5.31251 10.9092ZM10.625 5.59669V5.33106C9.89246 5.32993 9.16694 5.47395 8.49036 5.75479C7.81378 6.03564 7.19955 6.44774 6.68313 6.96731L6.86907 7.15325C7.36172 6.65917 7.94715 6.26731 8.59172 6.00019C9.23629 5.73306 9.92728 5.59594 10.625 5.59669ZM14.3815 7.15272C14.8755 7.64548 15.2673 8.23101 15.5344 8.87567C15.8014 9.52033 15.9384 10.2114 15.9375 10.9092H16.2031C16.2043 10.1766 16.0602 9.45112 15.7794 8.77454C15.4986 8.09796 15.0864 7.48373 14.5669 6.96731L14.3815 7.15272ZM10.625 16.2217V16.4873C11.3576 16.4884 12.0831 16.3444 12.7597 16.0636C13.4362 15.7827 14.0505 15.3706 14.5669 14.8511L14.3809 14.6651C13.8883 15.1592 13.3029 15.5511 12.6583 15.8182C12.0137 16.0853 11.3227 16.2224 10.625 16.2217Z" fill="#FFDF75"/>
<g id="Group_2">
<path id="Vector_12" d="M10.8908 12.9965C11.0742 12.9505 11.2419 12.8559 11.3761 12.7226C11.4203 12.6776 11.4605 12.6288 11.4961 12.5768C11.3189 12.7015 11.1075 12.7684 10.8908 12.7686V12.9965ZM10.3595 12.7686H9.56266V12.5029H9.29703V13.0342H10.0939V13.5654H10.6252V13.2998H10.3595V12.7686ZM10.3595 11.1748C10.1654 11.1752 9.97493 11.1223 9.80882 11.0218C9.64271 10.9214 9.50736 10.7773 9.41752 10.6052C9.32767 10.4331 9.28678 10.2397 9.29931 10.046C9.31184 9.8523 9.37729 9.66575 9.48855 9.50668C9.30334 9.63595 9.16415 9.82088 9.09117 10.0346C9.01819 10.2484 9.01523 10.4798 9.0827 10.6954C9.15018 10.9109 9.28459 11.0993 9.46642 11.2333C9.64825 11.3673 9.86805 11.4398 10.0939 11.4404V12.2373H10.3595V11.1748ZM10.8908 9.58105H11.422V9.84668H10.8908V9.58105ZM10.3595 8.78418H10.0939V9.08752C10.1805 9.0636 10.2697 9.05093 10.3595 9.0498V8.78418ZM11.422 11.7061C11.422 11.5652 11.3661 11.43 11.2664 11.3304C11.1668 11.2308 11.0317 11.1748 10.8908 11.1748V11.5143C11.005 11.5791 11.0907 11.6844 11.131 11.8094C11.1714 11.9343 11.1633 12.0699 11.1086 12.1892C11.1671 12.163 11.2205 12.1265 11.2661 12.0814C11.3157 12.0323 11.355 11.9738 11.3817 11.9094C11.4085 11.8449 11.4222 11.7758 11.422 11.7061ZM9.8761 9.89449C9.94447 9.86325 10.0187 9.84695 10.0939 9.84668V10.5697C10.1743 10.6175 10.266 10.643 10.3595 10.6436V9.58105C10.2573 9.58127 10.1574 9.61095 10.0716 9.66655C9.98589 9.72214 9.91799 9.80128 9.8761 9.89449Z" fill="#F0A53B"/>
</g>
<path id="Vector_13" d="M10.4391 3.4216C10.3702 3.31508 10.3417 3.18744 10.3588 3.06175C10.3758 2.93605 10.4373 2.82061 10.532 2.73629L10.625 2.65129L10.8216 2.47598C10.0491 1.6499 9.06093 1.05644 7.96877 0.762695V1.1877C7.95284 1.3137 7.88847 1.42854 7.78929 1.50788C7.69012 1.58722 7.56394 1.62482 7.43752 1.6127H5.31252C5.18609 1.62482 5.05992 1.58722 4.96074 1.50788C4.86157 1.42854 4.79719 1.3137 4.78127 1.1877V0.762695C3.69009 1.0555 2.70274 1.6481 1.93111 2.47332L2.12767 2.64863L2.2233 2.73629C2.3174 2.82103 2.37839 2.93641 2.39541 3.0619C2.41244 3.18739 2.38439 3.31485 2.31627 3.4216L1.34408 5.29426C1.20861 5.55457 0.950955 5.66613 0.765017 5.5466L0.648142 5.49613L0.401111 5.38988C0.310035 5.80695 0.264611 6.23268 0.265642 6.65957C0.265046 7.08542 0.309566 7.51013 0.398455 7.9266L0.648142 7.82035L0.765017 7.76988C0.950955 7.65035 1.20861 7.76457 1.34408 8.02223L2.31627 9.89754C2.38423 10.0043 2.41219 10.1318 2.39517 10.2572C2.37815 10.3827 2.31726 10.498 2.2233 10.5829L1.92845 10.8458C2.69277 11.6594 3.6658 12.2474 4.74142 12.5458C4.71046 12.4472 4.68475 12.347 4.66439 12.2457C4.56482 11.8073 4.51492 11.3591 4.51564 10.9096C4.51564 10.7688 4.52095 10.628 4.53158 10.4899C4.53689 10.3943 4.54486 10.2986 4.55814 10.2057C3.99925 9.91927 3.51597 9.50482 3.14771 8.99612C2.77946 8.48742 2.53667 7.89888 2.43915 7.2785C2.34162 6.65812 2.39212 6.02347 2.58653 5.42631C2.78093 4.82916 3.11374 4.28642 3.5578 3.84236C4.00187 3.39829 4.54461 3.06549 5.14176 2.87108C5.73891 2.67667 6.37356 2.62617 6.99394 2.7237C7.61433 2.82123 8.20287 3.06402 8.71157 3.43227C9.22027 3.80052 9.63472 4.2838 9.92111 4.8427C10.0141 4.82941 10.1097 4.82145 10.2053 4.81613C10.3435 4.80551 10.4842 4.8002 10.625 4.8002C10.806 4.79964 10.9869 4.8085 11.1669 4.82676L10.4391 3.4216Z" fill="#6324D7"/>
<path id="Vector_14" d="M6.37516 2.6748C5.48094 2.67477 4.6127 2.97555 3.91012 3.52875C3.20755 4.08195 2.7115 4.8554 2.50177 5.72468C2.29203 6.59397 2.38082 7.50853 2.75384 8.32124C3.12686 9.13394 3.76243 9.79754 4.55829 10.2053C4.56598 10.1116 4.57928 10.0185 4.59813 9.92637C4.72908 9.09879 5.03222 8.30789 5.48797 7.6048C5.1775 7.17457 4.74689 6.84561 4.25016 6.65918C5.46407 6.31652 6.37516 4.26855 6.37516 4.26855C6.62625 4.80775 6.94201 5.31439 7.31547 5.7773C8.01936 5.31831 8.81232 5.01325 9.64235 4.88215C9.73444 4.8633 9.82757 4.85 9.92125 4.8423C9.58668 4.18984 9.07864 3.64229 8.45301 3.25989C7.82738 2.87748 7.1084 2.67503 6.37516 2.6748Z" fill="#FFFCED"/>
<path id="Vector_15" d="M7.31531 5.7773C6.58175 6.24788 5.95839 6.87124 5.48781 7.6048C5.17734 7.17457 4.74673 6.84561 4.25 6.65918C5.46391 6.31652 6.375 4.26855 6.375 4.26855C6.62609 4.80775 6.94185 5.31439 7.31531 5.7773Z" fill="#6324D7"/>
<path id="Vector_16" d="M0.765 7.76949C0.950938 7.64996 1.20859 7.76418 1.34406 8.02184L2.31625 9.89715C2.38422 10.0039 2.41217 10.1314 2.39515 10.2568C2.37813 10.3823 2.31724 10.4976 2.22328 10.5825L1.92844 10.8454C1.15994 10.0314 0.630571 9.02136 0.398438 7.92621L0.765 7.76949ZM1.34406 5.29387C1.20859 5.55418 0.950938 5.66574 0.765 5.54621L0.401094 5.38949C0.631032 4.29433 1.16073 3.28459 1.93109 2.47293L2.22328 2.7359C2.31738 2.82064 2.37837 2.93602 2.3954 3.06151C2.41242 3.187 2.38437 3.31446 2.31625 3.42121L1.34406 5.29387ZM7.96875 0.762305V1.1873C7.95282 1.31331 7.88845 1.42815 7.78927 1.50749C7.6901 1.58683 7.56393 1.62443 7.4375 1.6123H5.3125C5.18607 1.62443 5.0599 1.58683 4.96073 1.50749C4.86155 1.42815 4.79718 1.31331 4.78125 1.1873V0.762305C5.82486 0.478971 6.92514 0.478971 7.96875 0.762305ZM12.2612 5.02559C12.1635 4.99463 12.0642 4.96891 11.9638 4.94855C11.7014 4.88872 11.4351 4.84788 11.1669 4.82637L10.4391 3.42121C10.3702 3.31469 10.3417 3.18705 10.3588 3.06135C10.3758 2.93566 10.4373 2.82022 10.532 2.7359L10.625 2.6509L10.8216 2.47559C11.5025 3.19526 11.9968 4.07077 12.2612 5.02559Z" fill="#F7F3E1"/>
<path id="Vector_17" d="M6.37497 2.40918C5.41176 2.40875 4.47697 2.73551 3.7238 3.33593C2.97063 3.93635 2.44375 4.7748 2.22951 5.71388C2.01527 6.65295 2.12638 7.63695 2.54462 8.50462C2.96287 9.37228 3.66344 10.0721 4.53153 10.4895C4.53684 10.3939 4.54481 10.2982 4.55809 10.2053C3.9992 9.91888 3.51592 9.50443 3.14766 8.99573C2.77941 8.48703 2.53662 7.89849 2.4391 7.27811C2.34157 6.65773 2.39207 6.02308 2.58648 5.42592C2.78088 4.82877 3.11369 4.28603 3.55775 3.84197C4.00182 3.3979 4.54456 3.0651 5.14171 2.87069C5.73886 2.67628 6.37351 2.62578 6.99389 2.72331C7.61427 2.82084 8.20282 3.06363 8.71152 3.43188C9.22022 3.80013 9.63467 4.28341 9.92106 4.84231C10.014 4.82902 10.1097 4.82106 10.2053 4.81574C9.85816 4.09468 9.31452 3.48627 8.6369 3.06052C7.95928 2.63478 7.17523 2.40901 6.37497 2.40918Z" fill="#20074D"/>
<path id="Vector_18" d="M6.375 2.6748C5.48078 2.67477 4.61254 2.97555 3.90996 3.52875C3.20739 4.08195 2.71134 4.8554 2.50161 5.72468C2.29187 6.59397 2.38066 7.50853 2.75368 8.32124C3.1267 9.13394 3.76227 9.79754 4.55812 10.2053C4.56582 10.1116 4.57912 10.0185 4.59797 9.92637C4.09008 9.64986 3.65367 9.25872 3.32342 8.78402C2.99317 8.30932 2.77818 7.76415 2.69553 7.19181C2.61287 6.61947 2.66483 6.03574 2.84728 5.487C3.02973 4.93825 3.33763 4.43962 3.74654 4.03072C4.15544 3.62181 4.65407 3.31391 5.20282 3.13146C5.75156 2.94901 6.33529 2.89705 6.90763 2.97971C7.47997 3.06236 8.02514 3.27735 8.49984 3.6076C8.97454 3.93785 9.36568 4.37426 9.64219 4.88215C9.73428 4.8633 9.82741 4.85 9.92109 4.8423C9.58652 4.18984 9.07848 3.64229 8.45285 3.25989C7.82722 2.87748 7.10824 2.67503 6.375 2.6748ZM2.22328 10.5825L1.92844 10.8454C1.15994 10.0314 0.630571 9.02136 0.398438 7.92621L0.765 7.76949C0.950938 7.64996 1.20859 7.76418 1.34406 8.02184L2.31625 9.89715C2.38422 10.0039 2.41217 10.1314 2.39515 10.2568C2.37813 10.3823 2.31724 10.4976 2.22328 10.5825Z" fill="#E3DECB"/>
<path id="Vector_19" d="M0.531268 6.65957C0.531149 6.26877 0.570034 5.87894 0.647346 5.49587L0.401112 5.38962C0.310016 5.80677 0.264593 6.23259 0.265643 6.65957C0.265047 7.08542 0.309566 7.51013 0.398455 7.9266L0.64708 7.82035C0.570002 7.43823 0.531206 7.04938 0.531268 6.65957ZM4.78127 1.03762V0.762695C3.69009 1.0555 2.70274 1.6481 1.93111 2.47332L2.12661 2.64943C2.84981 1.88242 3.76713 1.32545 4.78127 1.03762ZM4.74142 12.5458C3.6658 12.2474 2.69277 11.6594 1.92846 10.8458L2.12502 10.6705C2.82082 11.4066 3.69583 11.9493 4.66439 12.2457C4.68475 12.347 4.71046 12.4472 4.74142 12.5458ZM10.625 2.65182L10.8208 2.47598C10.0485 1.65003 9.06064 1.05658 7.96877 0.762695V1.03762C8.98375 1.32585 9.90168 1.88368 10.625 2.65182Z" fill="#6324D7"/>
<path id="Vector_20" d="M0.647063 7.82031L0.398438 7.92656C0.630571 9.02171 1.15994 10.0317 1.92844 10.8458L2.12633 10.6694C1.37613 9.877 0.863579 8.88981 0.647063 7.82031Z" fill="#C7C3B2"/>
<path id="Vector_21" d="M2.12687 2.64824L1.93137 2.47293C1.16101 3.28459 0.631306 4.29433 0.401367 5.38949L0.647602 5.49574C0.864466 4.42683 1.37699 3.44025 2.12687 2.64824ZM6.37527 0.81543C6.91421 0.815517 7.45054 0.890157 7.96902 1.03723V0.762305C6.92541 0.478971 5.82513 0.478971 4.78152 0.762305V1.03723C5.3 0.890157 5.83634 0.815517 6.37527 0.81543ZM12.2615 5.02559C12.1638 4.99463 12.0645 4.96891 11.964 4.94855C11.7012 4.08958 11.2429 3.30314 10.6253 2.6509L10.8218 2.47559C11.5028 3.19526 11.9971 4.07077 12.2615 5.02559Z" fill="#E3DECB"/>
<path id="Vector_22" d="M1.32812 6.9248C1.47483 6.9248 1.59375 6.80588 1.59375 6.65918C1.59375 6.51248 1.47483 6.39355 1.32812 6.39355C1.18142 6.39355 1.0625 6.51248 1.0625 6.65918C1.0625 6.80588 1.18142 6.9248 1.32812 6.9248Z" fill="#FFFCED"/>
<path id="Vector_23" d="M3.71875 11.1748C3.86545 11.1748 3.98438 11.0559 3.98438 10.9092C3.98438 10.7625 3.86545 10.6436 3.71875 10.6436C3.57205 10.6436 3.45312 10.7625 3.45312 10.9092C3.45312 11.0559 3.57205 11.1748 3.71875 11.1748Z" fill="#FFFCED"/>
<path id="Vector_24" d="M3.71875 2.6748C3.86545 2.6748 3.98438 2.55588 3.98438 2.40918C3.98438 2.26248 3.86545 2.14355 3.71875 2.14355C3.57205 2.14355 3.45312 2.26248 3.45312 2.40918C3.45312 2.55588 3.57205 2.6748 3.71875 2.6748Z" fill="#FFFCED"/>
<path id="Vector_25" d="M9.03125 2.6748C9.17795 2.6748 9.29688 2.55588 9.29688 2.40918C9.29688 2.26248 9.17795 2.14355 9.03125 2.14355C8.88455 2.14355 8.76562 2.26248 8.76562 2.40918C8.76562 2.55588 8.88455 2.6748 9.03125 2.6748Z" fill="#FFFCED"/>
<path id="Vector_26" d="M9.90255 4.81055C9.90972 4.82057 9.91595 4.83124 9.92114 4.84242C9.97692 4.83445 10.0327 4.82914 10.0911 4.82383C10.03 4.81852 9.9663 4.8132 9.90255 4.81055ZM4.51567 10.9093C4.51567 10.7685 4.52099 10.6277 4.53161 10.4896C4.53692 10.394 4.54489 10.2984 4.55817 10.2054C4.21214 10.0261 3.89367 9.79798 3.61255 9.52805C3.58556 9.62933 3.56516 9.73225 3.55146 9.83617C3.48499 10.19 3.45209 10.5493 3.45317 10.9093C3.45199 11.192 3.47241 11.4744 3.51427 11.754C3.52755 11.8655 3.54614 11.9771 3.56739 12.086H3.57005C3.94393 12.2785 4.33642 12.4325 4.74146 12.5455C4.71049 12.4469 4.68478 12.3467 4.66442 12.2454C4.56485 11.807 4.51495 11.3588 4.51567 10.9093Z" fill="#6324D7"/>
<path id="Vector_27" d="M9.9023 4.81043C9.80137 4.80247 9.69777 4.79981 9.59418 4.79981H9.5623C8.67793 4.79873 7.80401 4.99093 7.00168 5.36293C7.0973 5.50106 7.20355 5.64184 7.31512 5.77731C8.01901 5.31831 8.81196 5.01326 9.64199 4.88215C9.73408 4.8633 9.82722 4.85 9.9209 4.84231C9.9157 4.83113 9.90948 4.82046 9.9023 4.81043ZM4.87668 6.99387C4.32766 7.64736 3.92303 8.40955 3.68934 9.23043C3.66012 9.32872 3.63355 9.427 3.6123 9.52793C3.89343 9.79786 4.21189 10.026 4.55793 10.2053C4.56562 10.1116 4.57893 10.0185 4.59777 9.92637C4.72872 9.09879 5.03187 8.3079 5.48762 7.60481C5.30787 7.37859 5.1029 7.17362 4.87668 6.99387Z" fill="#E3DECB"/>
<path id="Vector_28" d="M7.31539 5.77766C6.58183 6.24823 5.95847 6.87159 5.48789 7.60516C5.30814 7.37894 5.10317 7.17397 4.87695 6.99422C5.45457 6.29867 6.18069 5.74137 7.00195 5.36328C7.09758 5.50141 7.20383 5.64219 7.31539 5.77766Z" fill="#20074D"/>
<path id="Vector_29" d="M9.90285 4.81055C9.91003 4.82057 9.91625 4.83124 9.92145 4.84242C9.97723 4.83445 10.033 4.82914 10.0914 4.82383C10.0304 4.81852 9.9666 4.8132 9.90285 4.81055ZM3.55176 9.83617C3.84734 10.0974 4.17708 10.3172 4.53191 10.4896C4.53723 10.394 4.5452 10.2984 4.55848 10.2054C4.21244 10.0261 3.89397 9.79798 3.61285 9.52805C3.58587 9.62933 3.56546 9.73225 3.55176 9.83617Z" fill="#6324D7"/>
<path id="Vector_30" d="M9.9023 4.81043C9.80137 4.80246 9.69777 4.7998 9.59418 4.7998C9.61012 4.82637 9.62605 4.85293 9.64199 4.88215C9.73408 4.8633 9.82722 4.85 9.9209 4.8423C9.9157 4.83112 9.90948 4.82045 9.9023 4.81043ZM3.6123 9.52793C3.89343 9.79786 4.21189 10.026 4.55793 10.2053C4.56562 10.1116 4.57893 10.0185 4.59777 9.92637C4.26119 9.74216 3.95482 9.50746 3.68934 9.23043C3.66012 9.32871 3.63355 9.42699 3.6123 9.52793Z" fill="#E3DECB"/>
<path id="Vector_31" d="M4.74184 12.5455C4.3368 12.4324 3.94432 12.2784 3.57043 12.0859H3.56777C3.54652 11.977 3.52793 11.8655 3.51465 11.7539C3.87924 11.9586 4.26486 12.1234 4.6648 12.2453C4.68516 12.3467 4.71087 12.4468 4.74184 12.5455Z" fill="#6324D7"/>
<path id="Vector_32" d="M3.71875 11.1748C3.86545 11.1748 3.98438 11.0559 3.98438 10.9092C3.98438 10.7625 3.86545 10.6436 3.71875 10.6436C3.57205 10.6436 3.45312 10.7625 3.45312 10.9092C3.45312 11.0559 3.57205 11.1748 3.71875 11.1748Z" fill="#E3DECB"/>
</g>
</g>
</g>
<defs>
<clipPath id="clip0_1_787">
<rect width="17" height="17" fill="white" transform="translate(0 0.28418)"/>
</clipPath>
</defs>
</svg>
