<svg width="10" height="10" viewBox="0 0 10 10" fill="none" xmlns="http://www.w3.org/2000/svg">
<g id="information (1) 1" clip-path="url(#clip0_1_12010)">
<g id="Group">
<path id="Vector" d="M5 0C2.243 0 0 2.24303 0 5.00003C0 7.75703 2.243 10 5 10C7.757 10 10 7.75703 10 5.00003C10 2.24303 7.757 0 5 0ZM5 9.09091C2.74424 9.09091 0.909091 7.25576 0.909091 5.00003C0.909091 2.7443 2.74424 0.909091 5 0.909091C7.25576 0.909091 9.09091 2.7443 9.09091 5.00003C9.09091 7.25576 7.25573 9.09091 5 9.09091Z" fill="#93ACD3"/>
<path id="Vector_2" d="M5.00047 2.12109C4.66635 2.12109 4.39453 2.39309 4.39453 2.72743C4.39453 3.06146 4.66635 3.33321 5.00047 3.33321C5.33459 3.33321 5.60641 3.06146 5.60641 2.72743C5.60641 2.39309 5.33459 2.12109 5.00047 2.12109Z" fill="#93ACD3"/>
<path id="Vector_3" d="M4.99947 4.24219C4.74844 4.24219 4.54492 4.4457 4.54492 4.69673V7.42401C4.54492 7.67504 4.74844 7.87855 4.99947 7.87855C5.2505 7.87855 5.45401 7.67504 5.45401 7.42401V4.69673C5.45401 4.4457 5.2505 4.24219 4.99947 4.24219Z" fill="#93ACD3"/>
</g>
</g>
<defs>
<clipPath id="clip0_1_12010">
<rect width="10" height="10" fill="white"/>
</clipPath>
</defs>
</svg>
