<svg width="23" height="23" viewBox="0 0 23 23" fill="none" xmlns="http://www.w3.org/2000/svg">
<g clip-path="url(#clip0_1_11971)">
<path d="M23 11.5C23 9.29583 22.9042 7.28333 22.5208 6.13333C22.1375 4.79167 21.6583 3.54583 20.5083 2.39583C19.0708 1.05417 17.825 0.670833 15.9083 0.2875C14.5667 0.0958333 12.9375 0 11.9792 0C11.6917 0 11.4042 0 11.1167 0C10.0625 0 8.52917 0.0958333 7.09167 0.2875C5.175 0.670833 3.83333 1.15 2.49167 2.39583C1.24583 3.54583 0.8625 4.79167 0.479167 6.13333C0.0958333 7.28333 0 9.29583 0 11.5C0 13.7042 0.0958333 15.7167 0.479167 16.8667C0.8625 18.2083 1.34167 19.4542 2.49167 20.6042C3.92917 21.9458 5.175 22.3292 7.09167 22.7125C8.625 23 10.5417 23 11.5 23C12.4583 23 14.375 23 16.0042 22.7125C17.825 22.3292 19.1667 21.9458 20.6042 20.6042C21.7542 19.55 22.2333 18.3042 22.6167 16.8667C22.9042 15.7167 23 13.7042 23 11.5Z" fill="#161F2C"/>
<path d="M8.62539 6.4208C8.24206 6.80413 8.24206 7.37913 8.62539 7.76247L12.3629 11.5L8.62539 15.2375C8.24206 15.6208 8.24206 16.1958 8.62539 16.5791C9.00872 16.9625 9.58372 16.9625 9.96706 16.5791L14.3754 12.1708C14.7587 11.7875 14.7587 11.2125 14.3754 10.8291L9.96706 6.4208C9.58372 6.03747 9.00872 6.03747 8.62539 6.4208Z" fill="#DFDFDF"/>
</g>
<defs>
<clipPath id="clip0_1_11971">
<rect width="23" height="23" fill="white"/>
</clipPath>
</defs>
</svg>
