<svg width="23" height="23" viewBox="0 0 23 23" fill="none" xmlns="http://www.w3.org/2000/svg">
<g clip-path="url(#clip0_1_11980)">
<path d="M-5.28525e-07 11.5C-3.3583e-07 13.7042 0.0958332 15.7167 0.479167 16.8667C0.8625 18.2083 1.34167 19.4542 2.49167 20.6042C3.92917 21.9458 5.175 22.3292 7.09167 22.7125C8.43333 22.9042 10.0625 23 11.0208 23C11.3083 23 11.5958 23 11.8833 23C12.9375 23 14.4708 22.9042 15.9083 22.7125C17.825 22.3292 19.1667 21.85 20.5083 20.6042C21.7542 19.4542 22.1375 18.2083 22.5208 16.8667C22.9042 15.7167 23 13.7042 23 11.5C23 9.29583 22.9042 7.28333 22.5208 6.13333C22.1375 4.79167 21.6583 3.54583 20.5083 2.39583C19.0708 1.05417 17.825 0.670834 15.9083 0.2875C14.375 4.88284e-07 12.4583 1.39842e-06 11.5 1.4822e-06C10.5417 1.56598e-06 8.625 9.90965e-07 6.99583 0.287501C5.175 0.670835 3.83333 1.05417 2.39583 2.39584C1.24583 3.45 0.766665 4.69584 0.383332 6.13334C0.0958321 7.28334 -7.21219e-07 9.29584 -5.28525e-07 11.5Z" fill="#161F2C"/>
<path d="M14.3746 16.5792C14.7579 16.1959 14.7579 15.6209 14.3746 15.2375L10.6371 11.5L14.3746 7.76253C14.7579 7.3792 14.7579 6.8042 14.3746 6.42087C13.9913 6.03753 13.4163 6.03753 13.0329 6.42087L8.62461 10.8292C8.24128 11.2125 8.24128 11.7875 8.62461 12.1709L13.0329 16.5792C13.4163 16.9625 13.9913 16.9625 14.3746 16.5792Z" fill="#DFDFDF"/>
</g>
<defs>
<clipPath id="clip0_1_11980">
<rect width="23" height="23" fill="white" transform="translate(23 23) rotate(180)"/>
</clipPath>
</defs>
</svg>
