<svg width="14" height="15" viewBox="0 0 14 15" fill="none" xmlns="http://www.w3.org/2000/svg">
<g id="search-interface-symbol 2" opacity="0.5">
<g id="Group">
<g id="_x34__4_">
<g id="Group_2">
<path id="Vector" d="M13.8035 13.4708L10.4425 10.0867C11.3226 9.10817 11.8634 7.81412 11.8634 6.39015C11.863 3.34403 9.41098 0.875 6.38607 0.875C3.36116 0.875 0.90918 3.34403 0.90918 6.39015C0.90918 9.43628 3.36116 11.9053 6.38607 11.9053C7.69304 11.9053 8.89176 11.4427 9.83335 10.6737L13.2074 14.0712C13.3718 14.237 13.6387 14.237 13.8031 14.0712C13.9679 13.9055 13.9679 13.6366 13.8035 13.4708ZM6.38607 11.0568C3.82667 11.0568 1.75188 8.96746 1.75188 6.39015C1.75188 3.81285 3.82667 1.72354 6.38607 1.72354C8.94549 1.72354 11.0203 3.81285 11.0203 6.39015C11.0203 8.96746 8.94549 11.0568 6.38607 11.0568Z" fill="#93ACD3"/>
</g>
</g>
</g>
</g>
</svg>
