<svg width="8" height="12" viewBox="0 0 8 12" fill="none" xmlns="http://www.w3.org/2000/svg">
<path d="M3.29 6L6.83 2.46C7.01625 2.27264 7.12079 2.01919 7.12079 1.755C7.12079 1.49081 7.01625 1.23736 6.83 1.05C6.73704 0.956272 6.62644 0.881877 6.50458 0.831109C6.38272 0.78034 6.25201 0.754202 6.12 0.754202C5.98799 0.754202 5.85728 0.78034 5.73542 0.831109C5.61356 0.881877 5.50296 0.956272 5.41 1.05L1.17 5.29C1.07627 5.38296 1.00188 5.49356 0.95111 5.61542C0.900341 5.73728 0.874203 5.86799 0.874203 6C0.874203 6.13201 0.900341 6.26272 0.95111 6.38458C1.00188 6.50644 1.07627 6.61704 1.17 6.71L5.41 11C5.50344 11.0927 5.61426 11.166 5.73609 11.2158C5.85793 11.2655 5.98839 11.2908 6.12 11.29C6.25161 11.2908 6.38207 11.2655 6.50391 11.2158C6.62574 11.166 6.73656 11.0927 6.83 11C7.01625 10.8126 7.12079 10.5592 7.12079 10.295C7.12079 10.0308 7.01625 9.77736 6.83 9.59L3.29 6Z" fill="white"/>
</svg>
