<svg width="101" height="57" viewBox="0 0 101 57" fill="none" xmlns="http://www.w3.org/2000/svg">
<g clip-path="url(#clip0_320_262)">
<mask id="mask0_320_262" style="mask-type:luminance" maskUnits="userSpaceOnUse" x="6" y="-15" width="88" height="88">
<path d="M94 -15H6V73H94V-15Z" fill="white"/>
</mask>
<g mask="url(#mask0_320_262)">
<path d="M22.6314 15.1489C23.6674 13.853 24.3704 12.1131 24.1851 10.335C22.6685 10.4105 20.8177 11.3357 19.7463 12.6325C18.7841 13.7431 17.9327 15.5559 18.1547 17.2593C19.857 17.407 21.558 16.4084 22.6314 15.1489Z" fill="white"/>
<path d="M24.166 17.5919C21.6936 17.4446 19.5914 18.995 18.4106 18.995C17.2293 18.995 15.4212 17.6661 13.4656 17.7019C10.9203 17.7393 8.5586 19.1784 7.26696 21.4673C4.61028 26.0462 6.56588 32.8384 9.14933 36.5675C10.4039 38.4124 11.916 40.444 13.9082 40.371C15.7906 40.2971 16.5284 39.152 18.8164 39.152C21.1029 39.152 21.7675 40.371 23.7601 40.334C25.8265 40.2971 27.1183 38.4881 28.3728 36.6413C29.8121 34.538 30.4013 32.5073 30.4383 32.3958C30.4011 32.3588 26.4537 30.8444 26.4171 26.3037C26.3798 22.5016 29.5163 20.693 29.664 20.5809C27.893 17.9616 25.1254 17.6661 24.166 17.5919Z" fill="white"/>
<path d="M45.6938 12.4463C51.0677 12.4463 54.8096 16.1506 54.8096 21.5437C54.8096 26.956 50.9905 30.6795 45.5591 30.6795H39.6093V40.1414H35.3105V12.4463H45.6938ZM39.6091 27.0712H44.5416C48.2843 27.0712 50.4144 25.0561 50.4144 21.5629C50.4144 18.0701 48.2843 16.0739 44.5608 16.0739H39.6091V27.0712Z" fill="white"/>
<path d="M55.9336 34.4027C55.9336 30.871 58.6397 28.7023 63.4383 28.4337L68.9655 28.1075V26.553C68.9655 24.3075 67.4492 22.9639 64.9163 22.9639C62.5166 22.9639 61.0195 24.1153 60.6553 25.9197H56.74C56.9703 22.2728 60.0792 19.5859 65.0696 19.5859C69.9636 19.5859 73.0919 22.1769 73.0919 26.2265V40.1411H69.1188V36.8208H69.0232C67.8526 39.0666 65.2997 40.4866 62.6513 40.4866C58.6975 40.4866 55.9336 38.0298 55.9336 34.4027ZM68.9653 32.5795V30.9865L63.9943 31.2935C61.5185 31.4664 60.1175 32.5604 60.1175 34.2877C60.1175 36.0532 61.5761 37.205 63.8025 37.205C66.7005 37.2046 68.9653 35.2086 68.9653 32.5795Z" fill="white"/>
<path d="M76.8418 47.5696V44.2109C77.1485 44.2875 77.8392 44.2875 78.1849 44.2875C80.104 44.2875 81.1406 43.4816 81.7736 41.4088C81.7736 41.3703 82.1387 40.1804 82.1387 40.1611L74.8457 19.9512H79.3363L84.4421 36.3802H84.5185L89.6244 19.9512H93.9998L86.4373 41.1974C84.7106 46.0919 82.7145 47.6656 78.5305 47.6656C78.1849 47.6656 77.1483 47.6271 76.8418 47.5696Z" fill="white"/>
</g>
</g>
<defs>
<clipPath id="clip0_320_262">
<rect width="101" height="57" fill="white"/>
</clipPath>
</defs>
</svg>
