<svg width="35" height="35" viewBox="0 0 35 35" fill="none" xmlns="http://www.w3.org/2000/svg">
<path d="M22.4993 13.1311H21.6054V11.1418H22.4993C23.0224 11.1418 23.3866 11.1749 23.5872 11.2392C23.7886 11.3036 23.9438 11.4124 24.0516 11.5637C24.1566 11.716 24.2115 11.8986 24.2115 12.1133C24.2115 12.3205 24.1547 12.503 24.0422 12.661C23.9277 12.819 23.7593 12.9363 23.5361 13.0138C23.3138 13.0933 22.9685 13.1311 22.4993 13.1311ZM23.695 14.4621C23.4699 14.376 23.1236 14.3334 22.662 14.3334H21.6054V16.1005C21.6092 16.3502 21.6205 16.4959 21.6347 16.5394C21.6546 16.5933 21.6849 16.6321 21.7331 16.6538C21.7776 16.6737 21.8996 16.6869 22.0973 16.6869H22.6923C23.0376 16.6869 23.327 16.6538 23.5531 16.5886C23.7801 16.5252 23.9741 16.3918 24.1349 16.1884C24.2938 15.986 24.3732 15.7419 24.3732 15.4582C24.3732 15.216 24.3155 15.0126 24.203 14.8433C24.0904 14.674 23.9201 14.5453 23.695 14.4621ZM32.3097 13.9087C32.3097 19.2949 27.9423 23.6633 22.5551 23.6633C17.1689 23.6633 12.8005 19.2959 12.8005 13.9087C12.8005 8.52154 17.168 4.15411 22.5551 4.15411C27.9423 4.15411 32.3097 8.51965 32.3097 13.9087ZM26.4903 15.6701C26.4903 15.3078 26.4032 14.9795 26.2339 14.6844C26.0627 14.3892 25.8291 14.1603 25.5405 13.9967C25.3372 13.8784 25.0468 13.7715 24.6618 13.6751C25.0165 13.554 25.3041 13.4007 25.5207 13.2153C25.7373 13.0309 25.9028 12.8171 26.0192 12.5759C26.1336 12.3337 26.1914 12.0783 26.1914 11.8087C26.1914 11.4388 26.0835 11.0983 25.8641 10.788C25.6465 10.4787 25.3334 10.2403 24.9295 10.0748C24.7724 10.0105 24.5861 9.96222 24.3827 9.92249V8.4837H23.0007V9.826H22.1134V8.4837H20.7314V9.826H18.6228V10.9545H18.9464C19.162 10.9545 19.3058 10.9744 19.3824 11.0132C19.4581 11.0519 19.513 11.1049 19.5442 11.1711C19.5745 11.2374 19.5905 11.3925 19.5905 11.6337V16.1846C19.5905 16.4221 19.5745 16.5763 19.5442 16.6453C19.513 16.7125 19.4581 16.7655 19.3824 16.8024C19.3058 16.8402 19.162 16.8591 18.9464 16.8591H18.6228V17.9867H20.7314V19.3299H22.1134V17.9867H22.9004C22.9354 17.9867 22.9676 17.9867 23.0007 17.9867V19.3299H24.3827V17.8722C24.6154 17.8278 24.8188 17.7719 24.9938 17.701C25.4724 17.5099 25.8413 17.2328 26.1005 16.8676C26.3588 16.5025 26.4903 16.1033 26.4903 15.6701ZM35 13.9087C35 20.1226 30.3847 25.3963 24.2418 26.2287L15.3943 33.4311C15.3073 33.5011 15.2023 33.5361 15.0964 33.5361C15.0018 33.5361 14.9072 33.5087 14.8258 33.4501C14.6527 33.3299 14.5799 33.1114 14.648 32.9118L17.2834 25.1815C16.5938 24.8599 15.9477 24.4721 15.3395 24.0398C14.84 24.3803 14.3216 24.6925 13.7578 24.9328L11.6664 31.8826L8.65635 25.6356C3.77905 25.0283 0 20.8746 0 15.8309C0 10.369 4.42797 5.94194 9.88986 5.94194C10.8623 5.94194 11.7969 6.09708 12.6832 6.361C14.9592 3.38978 18.533 1.46289 22.5551 1.46289C29.4189 1.46194 35 7.04681 35 13.9087ZM34.0541 13.9087C34.0541 7.56708 28.8958 2.40884 22.5551 2.40884C16.2164 2.40884 11.0581 7.56708 11.0581 13.9087C11.0581 18.5278 13.8051 22.6814 18.0562 24.4919C18.2851 24.5903 18.3996 24.8448 18.3182 25.0794L16.0754 31.6556L23.7461 25.4086C23.8151 25.3528 23.8993 25.3178 23.9864 25.3083C29.7273 24.5932 34.0541 19.6922 34.0541 13.9087Z" fill="#D9D9D9"/>
</svg>
