<svg width="18" height="18" viewBox="0 0 18 18" fill="none" xmlns="http://www.w3.org/2000/svg">
<g clip-path="url(#clip0_1_33)">
<path d="M4.37109 15.3965L3.48656 15.8401L3.04297 16.7246L2.59938 15.8401L1.71484 15.3965L2.59938 14.9529L3.04297 14.0684L3.48656 14.9529L4.37109 15.3965ZM16.0586 3.17773L15.1741 3.62133L14.7305 4.50586L14.2869 3.62133L13.4023 3.17773L14.2869 2.73414L14.7305 1.84961L15.1741 2.73414L16.0586 3.17773Z" fill="#FF9C00"/>
<path d="M11.0117 15.6621C13.3589 15.6621 15.2617 13.7593 15.2617 11.4121C15.2617 9.0649 13.3589 7.16211 11.0117 7.16211C8.66451 7.16211 6.76172 9.0649 6.76172 11.4121C6.76172 13.7593 8.66451 15.6621 11.0117 15.6621Z" fill="#FFC052"/>
<path d="M15.2618 11.4121C15.2618 12.5393 14.814 13.6203 14.017 14.4173C13.2199 15.2143 12.1389 15.6621 11.0118 15.6621C9.88458 15.6621 8.80358 15.2143 8.00655 14.4173C7.20952 13.6203 6.76175 12.5393 6.76175 11.4121C6.7612 11.2791 6.7674 11.1461 6.78035 11.0137C6.87924 12.0675 7.36779 13.0464 8.15039 13.759C8.933 14.4716 9.95333 14.8666 11.0118 14.8666C12.0702 14.8666 13.0905 14.4716 13.8731 13.759C14.6557 13.0464 15.1443 12.0675 15.2432 11.0137C15.2561 11.1461 15.2623 11.2791 15.2618 11.4121Z" fill="#F0A53B"/>
<path d="M15.3308 7.0931C15.899 7.65961 16.3496 8.33281 16.6569 9.07401C16.9641 9.81521 17.1219 10.6098 17.1211 11.4122H16.5899C16.591 10.6796 16.447 9.9541 16.1661 9.27752C15.8853 8.60094 15.4732 7.9867 14.9536 7.47029L15.3308 7.0931ZM11.0117 16.9903C11.7443 16.9914 12.4698 16.8474 13.1464 16.5666C13.823 16.2857 14.4372 15.8736 14.9536 15.354L15.3308 15.7312C14.7643 16.2994 14.0911 16.7501 13.3499 17.0573C12.6087 17.3645 11.8141 17.5223 11.0117 17.5215V16.9903ZM7.06986 15.354L6.69267 15.7312C5.94734 14.9878 5.40818 14.0632 5.12814 13.0484C4.97719 12.5161 4.9012 11.9654 4.90236 11.4122H5.43361C5.43248 12.1447 5.5765 12.8702 5.85734 13.5468C6.13818 14.2234 6.55029 14.8376 7.06986 15.354ZM11.0117 5.30279V5.83404C10.2792 5.83291 9.55366 5.97693 8.87708 6.25777C8.20051 6.53862 7.58627 6.95072 7.06986 7.47029L6.69267 7.0931C7.6622 6.12344 8.93012 5.50866 10.2919 5.34795C10.5306 5.31679 10.771 5.3017 11.0117 5.30279Z" fill="#FFAF3F"/>
<path d="M7.0699 15.354C7.58631 15.8736 8.20055 16.2857 8.87713 16.5665C9.55371 16.8473 10.2792 16.9914 11.0118 16.9902V17.5215C10.2094 17.5223 9.41482 17.3645 8.67362 17.0573C7.93242 16.75 7.25922 16.2994 6.69271 15.7312L7.0699 15.354ZM7.0699 7.47023C6.55033 7.98665 6.13823 8.60088 5.85738 9.27746C5.57654 9.95404 5.43252 10.6796 5.43365 11.4121H4.9024C4.90131 11.1714 4.9164 10.9309 4.94756 10.6923C5.05342 9.77086 5.37067 8.88636 5.87459 8.10773C6.11051 7.74143 6.38477 7.40128 6.69271 7.09305L7.0699 7.47023ZM12.648 5.52852C13.6628 5.80856 14.5874 6.34772 15.3308 7.09305L14.9536 7.47023C14.4372 6.95067 13.823 6.53856 13.1464 6.25772C12.4698 5.97687 11.7443 5.83286 11.0118 5.83398V5.30273C11.1897 5.30273 11.3651 5.3107 11.5377 5.32664C11.9136 5.35695 12.2855 5.42457 12.648 5.52852ZM16.5899 11.4121H17.1211C17.1219 12.2145 16.9642 13.0091 16.6569 13.7503C16.3497 14.4915 15.899 15.1647 15.3308 15.7312L14.9536 15.354C15.4732 14.8376 15.8853 14.2233 16.1662 13.5468C16.447 12.8702 16.591 12.1447 16.5899 11.4121Z" fill="#F09413"/>
<path d="M16.0586 11.4121H16.5898C16.591 12.1447 16.447 12.8702 16.1661 13.5468C15.8853 14.2233 15.4732 14.8376 14.9536 15.354L14.5791 14.9795L14.0611 14.4615L14.0186 14.419C14.4133 14.0241 14.7263 13.5553 14.9396 13.0393C15.1529 12.5234 15.2624 11.9704 15.2617 11.4121H16.0586ZM7.96235 14.4615L8.00485 14.419C8.39972 14.8137 8.86855 15.1266 9.38451 15.34C9.90046 15.5533 10.4534 15.6627 11.0117 15.6621V16.9902C10.2792 16.9914 9.55366 16.8474 8.87708 16.5665C8.2005 16.2857 7.58626 15.8736 7.06985 15.354L7.44438 14.9795L7.96235 14.4615ZM7.96235 8.36274L8.00485 8.40524C7.61015 8.80011 7.29719 9.26894 7.08388 9.7849C6.87057 10.3009 6.7611 10.8538 6.76173 11.4121H5.4336C5.43247 10.6796 5.57649 9.95405 5.85733 9.27747C6.13818 8.60089 6.55028 7.98665 7.06985 7.47024L7.44438 7.84477L7.96235 8.36274ZM14.0611 8.36274L14.0186 8.40524C13.6237 8.01054 13.1549 7.69758 12.6389 7.48427C12.123 7.27096 11.57 7.16149 11.0117 7.16212V5.83399C11.7443 5.83286 12.4698 5.97688 13.1464 6.25772C13.823 6.53857 14.4372 6.95067 14.9536 7.47024L14.5791 7.84477L14.0611 8.36274Z" fill="#FFAF3F"/>
<path d="M8.00485 14.419L7.96235 14.4615L7.44438 14.9795L7.06985 15.354C6.55028 14.8376 6.13818 14.2233 5.85733 13.5468C5.57649 12.8702 5.43247 12.1447 5.4336 11.4121H6.76173C6.7611 11.9704 6.87057 12.5234 7.08388 13.0393C7.29719 13.5553 7.61015 14.0241 8.00485 14.419ZM11.0117 6.36524V7.16212C10.4534 7.16149 9.90046 7.27096 9.38451 7.48427C8.86855 7.69758 8.39972 8.01054 8.00485 8.40524L7.96235 8.36274L7.44438 7.84477L7.06985 7.47024C7.58626 6.95067 8.2005 6.53857 8.87708 6.25772C9.55366 5.97688 10.2792 5.83286 11.0117 5.83399V6.36524ZM16.5898 11.4121H15.2617C15.2624 10.8538 15.1529 10.3009 14.9396 9.7849C14.7263 9.26894 14.4133 8.80011 14.0186 8.40524L14.0611 8.36274L14.5791 7.84477L14.9536 7.47024C15.4732 7.98665 15.8853 8.60089 16.1661 9.27747C16.447 9.95405 16.591 10.6796 16.5898 11.4121ZM14.5791 14.9795L14.9536 15.354C14.4372 15.8736 13.823 16.2857 13.1464 16.5665C12.4698 16.8474 11.7443 16.9914 11.0117 16.9902V15.6621C11.57 15.6627 12.123 15.5533 12.6389 15.34C13.1549 15.1266 13.6237 14.8137 14.0186 14.419L14.0611 14.4615L14.5791 14.9795Z" fill="#FFCB52"/>
<path d="M11.0117 7.16211C10.1712 7.16211 9.34946 7.41137 8.65055 7.87836C7.95164 8.34536 7.40691 9.00912 7.08523 9.7857C6.76356 10.5623 6.6794 11.4168 6.84338 12.2412C7.00737 13.0657 7.41214 13.8229 8.00652 14.4173C8.60089 15.0117 9.35817 15.4165 10.1826 15.5804C11.007 15.7444 11.8615 15.6603 12.6381 15.3386C13.4147 15.0169 14.0785 14.4722 14.5455 13.7733C15.0125 13.0744 15.2617 12.2527 15.2617 11.4121C15.2617 10.2849 14.814 9.20393 14.0169 8.40691C13.2199 7.60988 12.1389 7.16211 11.0117 7.16211ZM11.0117 15.3965C10.2237 15.3965 9.45335 15.1628 8.79812 14.725C8.14289 14.2872 7.63221 13.6649 7.33064 12.9369C7.02907 12.2088 6.95017 11.4077 7.1039 10.6348C7.25764 9.8619 7.63712 9.15196 8.19434 8.59473C8.75157 8.03751 9.46151 7.65803 10.2344 7.50429C11.0073 7.35056 11.8084 7.42946 12.5365 7.73103C13.2645 8.03259 13.8868 8.54328 14.3246 9.19851C14.7624 9.85374 14.9961 10.6241 14.9961 11.4121C14.9961 12.4688 14.5763 13.4823 13.8291 14.2295C13.0819 14.9767 12.0684 15.3965 11.0117 15.3965Z" fill="#C97C10"/>
<path d="M11.2777 11.146V10.0835H12.0745V9.55227H11.2777V9.02102H10.7464V9.55227C10.4646 9.55227 10.1944 9.66421 9.99511 9.86347C9.79585 10.0627 9.68391 10.333 9.68391 10.6148C9.68391 10.8966 9.79585 11.1668 9.99511 11.3661C10.1944 11.5653 10.4646 11.6773 10.7464 11.6773V12.7398H9.94953V13.271H10.7464V13.8023H11.2777V13.271C11.5595 13.271 11.8297 13.1591 12.029 12.9598C12.2282 12.7606 12.3402 12.4903 12.3402 12.2085C12.3402 11.9267 12.2282 11.6565 12.029 11.4572C11.8297 11.258 11.5595 11.146 11.2777 11.146ZM10.3711 10.9901C10.2969 10.9158 10.2464 10.8212 10.226 10.7182C10.2055 10.6153 10.216 10.5085 10.2562 10.4116C10.2964 10.3146 10.3644 10.2316 10.4516 10.1733C10.5388 10.1149 10.6414 10.0836 10.7464 10.0835V11.146C10.6766 11.1461 10.6076 11.1324 10.5431 11.1057C10.4787 11.0789 10.4202 11.0396 10.3711 10.9901ZM11.653 12.5838C11.6038 12.6334 11.5454 12.6726 11.4809 12.6994C11.4165 12.7262 11.3474 12.7399 11.2777 12.7398V11.6773C11.3826 11.6774 11.4852 11.7086 11.5725 11.767C11.6597 11.8254 11.7277 11.9083 11.7679 12.0053C11.808 12.1023 11.8185 12.209 11.7981 12.312C11.7776 12.415 11.7272 12.5096 11.653 12.5838ZM13.1389 11.4263C13.0776 11.8368 12.9329 12.2305 12.7139 12.583C12.6428 12.6687 12.6058 12.7776 12.61 12.8888C12.6331 12.9693 12.6846 13.0387 12.7551 13.084C12.8916 13.1777 13.0478 13.2386 13.2117 13.262C13.3756 13.2854 13.5426 13.2707 13.6999 13.219C14.0101 13.1152 14.2765 12.9104 14.4564 12.6372C14.6194 12.4115 14.7136 12.1435 14.7278 11.8654C14.7419 11.5874 14.6753 11.3111 14.5361 11.07C14.423 10.885 14.2526 10.7419 14.0508 10.6626C13.9395 10.6231 13.8212 10.6071 13.7034 10.6155C13.5856 10.624 13.4708 10.6567 13.3663 10.7117C13.1655 10.8605 13.1708 11.2103 13.1389 11.4263ZM9.47141 9.66888C9.17507 9.86488 8.92197 10.1194 8.72766 10.4169C8.67613 10.4966 8.62141 10.584 8.52764 10.6084C8.45543 10.6211 8.38103 10.6085 8.317 10.5728C8.19164 10.5089 8.08305 10.4165 7.99999 10.303C7.91694 10.1894 7.86175 10.0579 7.83888 9.9191C7.79853 9.64823 7.85496 9.3718 7.99825 9.13842C8.11843 8.92931 8.29491 8.75814 8.50759 8.6444C8.72028 8.53066 8.96062 8.47892 9.20127 8.49508C9.38961 8.50969 9.56863 8.58299 9.71313 8.70466C9.78717 8.77113 9.84609 8.85272 9.88591 8.94391C9.92573 9.03509 9.94552 9.13376 9.94396 9.23325C9.90703 9.43832 9.62919 9.56475 9.47141 9.66888Z" fill="#FFDF75"/>
<path d="M14.7682 15.1686L14.9541 15.3545C15.4737 14.838 15.8857 14.2237 16.1665 13.547C16.4472 12.8703 16.5911 12.1447 16.5899 11.4121H16.3242C16.3251 12.1099 16.1881 12.801 15.9211 13.4456C15.654 14.0903 15.2622 14.6758 14.7682 15.1686ZM7.25526 15.1686L7.06932 15.3545C7.58584 15.8741 8.20018 16.2861 8.87686 16.5669C9.55353 16.8476 10.2791 16.9915 11.0117 16.9902V16.7246C10.3139 16.7255 9.62287 16.5885 8.97821 16.3215C8.33356 16.0544 7.74802 15.6626 7.25526 15.1686ZM7.25526 7.65565L7.06932 7.46971C6.54979 7.98623 6.13774 8.60057 5.85699 9.27725C5.57623 9.95392 5.43233 10.6795 5.4336 11.4121H5.69923C5.69834 10.7143 5.83535 10.0233 6.10238 9.37861C6.36942 8.73395 6.76121 8.14841 7.25526 7.65565ZM14.7682 7.65565L14.9541 7.46971C14.4376 6.95018 13.8233 6.53813 13.1466 6.25738C12.4699 5.97662 11.7443 5.83272 11.0117 5.83399V6.09962C11.7095 6.09873 12.4006 6.23574 13.0452 6.50277C13.6899 6.76981 14.2754 7.16161 14.7682 7.65565Z" fill="#FAD039"/>
<path d="M5.69923 11.4121H5.4336C5.43247 12.1447 5.57649 12.8702 5.85733 13.5468C6.13818 14.2233 6.55028 14.8376 7.06985 15.354L7.25579 15.1681C6.76171 14.6754 6.36985 14.09 6.10273 13.4454C5.8356 12.8008 5.69848 12.1098 5.69923 11.4121ZM11.0117 6.09962V5.83399C10.2792 5.83286 9.55366 5.97688 8.87708 6.25772C8.2005 6.53857 7.58626 6.95067 7.06985 7.47024L7.25579 7.65618C7.74844 7.1621 8.33387 6.77024 8.97844 6.50312C9.623 6.23599 10.314 6.09887 11.0117 6.09962ZM14.7682 7.65565C15.2622 8.14841 15.654 8.73394 15.9211 9.3786C16.1881 10.0233 16.3251 10.7143 16.3242 11.4121H16.5898C16.591 10.6796 16.447 9.95405 16.1661 9.27747C15.8853 8.60089 15.4732 7.98665 14.9536 7.47024L14.7682 7.65565ZM11.0117 16.7246V16.9902C11.7443 16.9914 12.4698 16.8474 13.1464 16.5665C13.823 16.2857 14.4372 15.8736 14.9536 15.354L14.7677 15.1681C14.275 15.6621 13.6896 16.054 13.045 16.3211C12.4004 16.5882 11.7095 16.7254 11.0117 16.7246Z" fill="#FFDF75"/>
<path d="M11.2775 13.4994C11.461 13.4534 11.6286 13.3588 11.7628 13.2255C11.807 13.1805 11.8472 13.1317 11.8829 13.0797C11.7056 13.2044 11.4942 13.2714 11.2775 13.2715V13.4994ZM10.7463 13.2715H9.94938V13.0059H9.68375V13.5371H10.4806V14.0684H11.0119V13.8027H10.7463V13.2715ZM10.7463 11.6777C10.5521 11.6781 10.3616 11.6252 10.1955 11.5248C10.0294 11.4243 9.89408 11.2802 9.80423 11.1081C9.71439 10.9361 9.6735 10.7426 9.68603 10.5489C9.69855 10.3552 9.76401 10.1687 9.87527 10.0096C9.69006 10.1389 9.55087 10.3238 9.47789 10.5376C9.40491 10.7513 9.40195 10.9827 9.46942 11.1983C9.5369 11.4138 9.67131 11.6023 9.85314 11.7362C10.035 11.8702 10.2548 11.9428 10.4806 11.9434V12.7402H10.7463V11.6777ZM11.2775 10.084H11.8088V10.3496H11.2775V10.084ZM10.7463 9.28711H10.4806V9.59045C10.5672 9.56653 10.6565 9.55386 10.7463 9.55273V9.28711ZM11.8088 12.209C11.8088 12.0681 11.7528 11.933 11.6532 11.8333C11.5535 11.7337 11.4184 11.6777 11.2775 11.6777V12.0172C11.3917 12.082 11.4774 12.1873 11.5177 12.3123C11.5581 12.4373 11.5501 12.5728 11.4953 12.6922C11.5539 12.6659 11.6072 12.6294 11.6528 12.5843C11.7024 12.5352 11.7417 12.4767 11.7684 12.4123C11.7952 12.3479 11.8089 12.2788 11.8088 12.209ZM10.2628 10.3974C10.3312 10.3662 10.4054 10.3499 10.4806 10.3496V11.0726C10.561 11.1204 10.6527 11.1459 10.7463 11.1465V10.084C10.6441 10.0842 10.5441 10.1139 10.4584 10.1695C10.3726 10.2251 10.3047 10.3042 10.2628 10.3974Z" fill="#F0A53B"/>
<path d="M10.8258 3.92453C10.7569 3.81801 10.7284 3.69037 10.7455 3.56468C10.7625 3.43898 10.824 3.32354 10.9188 3.23922L11.0117 3.15422L11.2083 2.97891C10.4358 2.15283 9.44765 1.55937 8.35549 1.26562V1.69063C8.33956 1.81663 8.27519 1.93147 8.17601 2.01081C8.07684 2.09015 7.95066 2.12775 7.82424 2.11563H5.69924C5.57281 2.12775 5.44664 2.09015 5.34746 2.01081C5.24829 1.93147 5.18391 1.81663 5.16799 1.69063V1.26562C4.07681 1.55843 3.08946 2.15103 2.31783 2.97625L2.51439 3.15156L2.61002 3.23922C2.70412 3.32396 2.76511 3.43934 2.78213 3.56483C2.79915 3.69032 2.77111 3.81778 2.70299 3.92453L1.7308 5.79719C1.59533 6.0575 1.33767 6.16906 1.15174 6.04953L1.03486 5.99906L0.78783 5.89281C0.696754 6.30988 0.65133 6.73561 0.652361 7.1625C0.651765 7.58835 0.696284 8.01306 0.785173 8.42953L1.03486 8.32328L1.15174 8.27281C1.33767 8.15328 1.59533 8.2675 1.7308 8.52516L2.70299 10.4005C2.77095 10.5073 2.7989 10.6347 2.78189 10.7601C2.76487 10.8856 2.70398 11.0009 2.61002 11.0858L2.31517 11.3488C3.07949 12.1623 4.05252 12.7503 5.12814 13.0487C5.09718 12.9501 5.07147 12.8499 5.05111 12.7486C4.95153 12.3102 4.90164 11.862 4.90236 11.4125C4.90236 11.2717 4.90767 11.1309 4.9183 10.9928C4.92361 10.8972 4.93158 10.8016 4.94486 10.7086C4.38597 10.4222 3.90268 10.0078 3.53443 9.49905C3.16618 8.99035 2.92339 8.40181 2.82587 7.78143C2.72834 7.16105 2.77884 6.5264 2.97325 5.92924C3.16765 5.33209 3.50046 4.78935 3.94452 4.34529C4.38859 3.90122 4.93133 3.56842 5.52848 3.37401C6.12563 3.1796 6.76028 3.1291 7.38066 3.22663C8.00104 3.32416 8.58959 3.56695 9.09829 3.9352C9.60699 4.30345 10.0214 4.78673 10.3078 5.34562C10.4008 5.33234 10.4964 5.32437 10.592 5.31906C10.7302 5.30844 10.871 5.30312 11.0117 5.30312C11.1927 5.30257 11.3736 5.31143 11.5536 5.32969L10.8258 3.92453Z" fill="#6324D7"/>
<path d="M6.76188 3.17773C5.86766 3.1777 4.99941 3.47848 4.29684 4.03168C3.59427 4.58487 3.09822 5.35833 2.88849 6.22761C2.67875 7.0969 2.76754 8.01146 3.14056 8.82416C3.51358 9.63687 4.14914 10.3005 4.945 10.7082C4.95269 10.6145 4.966 10.5214 4.98485 10.4293C5.11579 9.60172 5.41894 8.81082 5.87469 8.10773C5.56422 7.6775 5.13361 7.34854 4.63688 7.16211C5.85079 6.81945 6.76188 4.77148 6.76188 4.77148C7.01297 5.31068 7.32873 5.81731 7.70219 6.28023C8.40608 5.82123 9.19903 5.51618 10.0291 5.38508C10.1212 5.36623 10.2143 5.35293 10.308 5.34523C9.9734 4.69277 9.46536 4.14522 8.83973 3.76282C8.2141 3.38041 7.49512 3.17796 6.76188 3.17773Z" fill="#FFFCED"/>
<path d="M7.70203 6.28023C6.96847 6.75081 6.34511 7.37417 5.87453 8.10773C5.56406 7.6775 5.13345 7.34854 4.63672 7.16211C5.85063 6.81945 6.76172 4.77148 6.76172 4.77148C7.01281 5.31068 7.32856 5.81731 7.70203 6.28023Z" fill="#6324D7"/>
<path d="M1.15172 8.27242C1.33766 8.15289 1.59531 8.26711 1.73078 8.52477L2.70297 10.4001C2.77094 10.5069 2.79889 10.6343 2.78187 10.7597C2.76485 10.8852 2.70396 11.0006 2.61 11.0854L2.31516 11.3484C1.54666 10.5343 1.01729 9.52429 0.785156 8.42914L1.15172 8.27242ZM1.73078 5.7968C1.59531 6.05711 1.33766 6.16867 1.15172 6.04914L0.787812 5.89242C1.01775 4.79726 1.54745 3.78752 2.31781 2.97586L2.61 3.23883C2.7041 3.32357 2.76509 3.43895 2.78211 3.56444C2.79914 3.68993 2.77109 3.81739 2.70297 3.92414L1.73078 5.7968ZM8.35547 1.26523V1.69023C8.33954 1.81624 8.27517 1.93108 8.17599 2.01042C8.07682 2.08976 7.95064 2.12736 7.82422 2.11523H5.69922C5.57279 2.12736 5.44662 2.08976 5.34744 2.01042C5.24827 1.93108 5.18389 1.81624 5.16797 1.69023V1.26523C6.21158 0.981901 7.31186 0.981901 8.35547 1.26523ZM12.648 5.52852C12.5502 5.49756 12.4509 5.47184 12.3505 5.45148C12.0881 5.39165 11.8218 5.35081 11.5536 5.3293L10.8258 3.92414C10.7569 3.81762 10.7284 3.68998 10.7455 3.56428C10.7625 3.43859 10.824 3.32315 10.9188 3.23883L11.0117 3.15383L11.2083 2.97852C11.8892 3.69819 12.3835 4.5737 12.648 5.52852Z" fill="#F7F3E1"/>
<path d="M6.76169 2.91211C5.79848 2.91168 4.86369 3.23844 4.11052 3.83886C3.35735 4.43928 2.83047 5.27773 2.61623 6.21681C2.40199 7.15588 2.5131 8.13988 2.93134 9.00755C3.34959 9.87521 4.05016 10.5751 4.91825 10.9924C4.92356 10.8968 4.93153 10.8012 4.94481 10.7082C4.38592 10.4218 3.90263 10.0074 3.53438 9.49866C3.16613 8.98996 2.92334 8.40142 2.82581 7.78104C2.72829 7.16066 2.77879 6.52601 2.97319 5.92885C3.1676 5.3317 3.50041 4.78896 3.94447 4.3449C4.38854 3.90083 4.93128 3.56803 5.52843 3.37362C6.12558 3.17921 6.76023 3.12871 7.38061 3.22624C8.00099 3.32377 8.58954 3.56656 9.09824 3.93481C9.60694 4.30306 10.0214 4.78634 10.3078 5.34523C10.4007 5.33195 10.4964 5.32398 10.592 5.31867C10.2449 4.59761 9.70124 3.9892 9.02362 3.56345C8.346 3.13771 7.56195 2.91194 6.76169 2.91211Z" fill="#20074D"/>
<path d="M6.76172 3.17773C5.86749 3.1777 4.99925 3.47848 4.29668 4.03168C3.59411 4.58487 3.09806 5.35833 2.88832 6.22761C2.67859 7.0969 2.76738 8.01146 3.1404 8.82416C3.51342 9.63687 4.14898 10.3005 4.94484 10.7082C4.95253 10.6145 4.96584 10.5214 4.98469 10.4293C4.4768 10.1528 4.04039 9.76165 3.71014 9.28695C3.37989 8.81225 3.1649 8.26708 3.08224 7.69474C2.99959 7.1224 3.05155 6.53867 3.234 5.98992C3.41645 5.44118 3.72435 4.94255 4.13326 4.53365C4.54216 4.12474 5.04079 3.81684 5.58953 3.63439C6.13828 3.45194 6.72201 3.39998 7.29435 3.48263C7.86669 3.56529 8.41186 3.78028 8.88656 4.11053C9.36126 4.44078 9.7524 4.87719 10.0289 5.38508C10.121 5.36623 10.2141 5.35293 10.3078 5.34523C9.97324 4.69277 9.4652 4.14522 8.83957 3.76282C8.21394 3.38041 7.49496 3.17796 6.76172 3.17773ZM2.61 11.0854L2.31516 11.3484C1.54666 10.5343 1.01729 9.52429 0.785156 8.42914L1.15172 8.27242C1.33766 8.15289 1.59531 8.26711 1.73078 8.52477L2.70297 10.4001C2.77094 10.5069 2.79889 10.6343 2.78187 10.7597C2.76485 10.8852 2.70396 11.0006 2.61 11.0854Z" fill="#E3DECB"/>
<path d="M0.917987 7.1625C0.917867 6.7717 0.956753 6.38187 1.03406 5.9988L0.78783 5.89255C0.696735 6.3097 0.651311 6.73552 0.652362 7.1625C0.651766 7.58835 0.696285 8.01306 0.785174 8.42953L1.0338 8.32328C0.956721 7.94116 0.917925 7.55231 0.917987 7.1625ZM5.16799 1.54055V1.26562C4.07681 1.55843 3.08946 2.15103 2.31783 2.97625L2.51333 3.15236C3.23653 2.38535 4.15385 1.82838 5.16799 1.54055ZM5.12814 13.0487C4.05252 12.7503 3.07949 12.1623 2.31517 11.3488L2.51174 11.1734C3.20754 11.9095 4.08255 12.4523 5.05111 12.7486C5.07147 12.8499 5.09718 12.9501 5.12814 13.0487ZM11.0117 3.15475L11.2075 2.97891C10.4353 2.15296 9.44736 1.55951 8.35549 1.26562V1.54055C9.37046 1.82878 10.2884 2.38661 11.0117 3.15475Z" fill="#6324D7"/>
<path d="M1.03378 8.32324L0.785156 8.42949C1.01729 9.52464 1.54666 10.5347 2.31516 11.3487L2.51305 11.1723C1.76285 10.3799 1.2503 9.39274 1.03378 8.32324Z" fill="#C7C3B2"/>
<path d="M2.51359 3.15117L2.31809 2.97586C1.54772 3.78752 1.01802 4.79726 0.788086 5.89242L1.03432 5.99867C1.25118 4.92976 1.76371 3.94318 2.51359 3.15117ZM6.76199 1.31836C7.30093 1.31845 7.83726 1.39309 8.35574 1.54016V1.26523C7.31213 0.981901 6.21185 0.981901 5.16824 1.26523V1.54016C5.68672 1.39309 6.22306 1.31845 6.76199 1.31836ZM12.6482 5.52852C12.5505 5.49756 12.4512 5.47184 12.3507 5.45148C12.0879 4.59251 11.6297 3.80607 11.012 3.15383L11.2086 2.97852C11.8895 3.69819 12.3838 4.5737 12.6482 5.52852Z" fill="#E3DECB"/>
<path d="M1.71484 7.42773C1.86154 7.42773 1.98047 7.30881 1.98047 7.16211C1.98047 7.01541 1.86154 6.89648 1.71484 6.89648C1.56814 6.89648 1.44922 7.01541 1.44922 7.16211C1.44922 7.30881 1.56814 7.42773 1.71484 7.42773Z" fill="#FFFCED"/>
<path d="M4.10547 11.6777C4.25217 11.6777 4.37109 11.5588 4.37109 11.4121C4.37109 11.2654 4.25217 11.1465 4.10547 11.1465C3.95877 11.1465 3.83984 11.2654 3.83984 11.4121C3.83984 11.5588 3.95877 11.6777 4.10547 11.6777Z" fill="#FFFCED"/>
<path d="M4.10547 3.17773C4.25217 3.17773 4.37109 3.05881 4.37109 2.91211C4.37109 2.76541 4.25217 2.64648 4.10547 2.64648C3.95877 2.64648 3.83984 2.76541 3.83984 2.91211C3.83984 3.05881 3.95877 3.17773 4.10547 3.17773Z" fill="#FFFCED"/>
<path d="M9.41797 3.17773C9.56467 3.17773 9.68359 3.05881 9.68359 2.91211C9.68359 2.76541 9.56467 2.64648 9.41797 2.64648C9.27127 2.64648 9.15234 2.76541 9.15234 2.91211C9.15234 3.05881 9.27127 3.17773 9.41797 3.17773Z" fill="#FFFCED"/>
<path d="M10.2893 5.31348C10.2964 5.3235 10.3027 5.33417 10.3079 5.34535C10.3636 5.33738 10.4194 5.33207 10.4779 5.32676C10.4168 5.32145 10.353 5.31613 10.2893 5.31348ZM4.90239 11.4122C4.90239 11.2714 4.90771 11.1307 4.91833 10.9925C4.92364 10.8969 4.93161 10.8013 4.94489 10.7083C4.59885 10.529 4.28039 10.3009 3.99927 10.031C3.97228 10.1323 3.95187 10.2352 3.93817 10.3391C3.87171 10.6929 3.83881 11.0522 3.83989 11.4122C3.8387 11.6949 3.85913 11.9773 3.90099 12.2569C3.91427 12.3685 3.93286 12.48 3.95411 12.5889H3.95677C4.33065 12.7814 4.72314 12.9354 5.12817 13.0485C5.09721 12.9499 5.0715 12.8497 5.05114 12.7483C4.95157 12.31 4.90167 11.8618 4.90239 11.4122Z" fill="#6324D7"/>
<path d="M10.289 5.31336C10.1881 5.3054 10.0845 5.30274 9.9809 5.30274H9.94902C9.06465 5.30166 8.19072 5.49385 7.3884 5.86586C7.48402 6.00399 7.59027 6.14477 7.70184 6.28024C8.40573 5.82124 9.19868 5.51619 10.0287 5.38508C10.1208 5.36623 10.2139 5.35293 10.3076 5.34524C10.3024 5.33406 10.2962 5.32339 10.289 5.31336ZM5.2634 7.4968C4.71438 8.15029 4.30975 8.91248 4.07605 9.73336C4.04684 9.83165 4.02027 9.92993 3.99902 10.0309C4.28014 10.3008 4.59861 10.5289 4.94465 10.7082C4.95234 10.6145 4.96564 10.5214 4.98449 10.4293C5.11544 9.60172 5.41858 8.81082 5.87434 8.10774C5.69459 7.88152 5.48962 7.67655 5.2634 7.4968Z" fill="#E3DECB"/>
<path d="M7.70211 6.28059C6.96855 6.75116 6.34519 7.37452 5.87461 8.10809C5.69486 7.88187 5.48989 7.6769 5.26367 7.49715C5.84129 6.8016 6.56741 6.2443 7.38867 5.86621C7.4843 6.00434 7.59055 6.14512 7.70211 6.28059Z" fill="#20074D"/>
<path d="M10.2896 5.31348C10.2967 5.3235 10.303 5.33417 10.3082 5.34535C10.3639 5.33738 10.4197 5.33207 10.4782 5.32676C10.4171 5.32145 10.3533 5.31613 10.2896 5.31348ZM3.93848 10.3391C4.23406 10.6003 4.5638 10.8202 4.91863 10.9925C4.92395 10.8969 4.93191 10.8013 4.9452 10.7083C4.59916 10.529 4.28069 10.3009 3.99957 10.031C3.97258 10.1323 3.95218 10.2352 3.93848 10.3391Z" fill="#6324D7"/>
<path d="M10.289 5.31336C10.1881 5.30539 10.0845 5.30273 9.9809 5.30273C9.99684 5.3293 10.0128 5.35586 10.0287 5.38508C10.1208 5.36623 10.2139 5.35293 10.3076 5.34523C10.3024 5.33405 10.2962 5.32338 10.289 5.31336ZM3.99902 10.0309C4.28014 10.3008 4.59861 10.5289 4.94465 10.7082C4.95234 10.6145 4.96564 10.5214 4.98449 10.4293C4.6479 10.2451 4.34154 10.0104 4.07605 9.73336C4.04684 9.83164 4.02027 9.92992 3.99902 10.0309Z" fill="#E3DECB"/>
<path d="M5.12855 13.0484C4.72352 12.9353 4.33103 12.7813 3.95715 12.5889H3.95449C3.93324 12.48 3.91465 12.3684 3.90137 12.2568C4.26596 12.4615 4.65158 12.6263 5.05152 12.7482C5.07188 12.8496 5.09759 12.9498 5.12855 13.0484Z" fill="#6324D7"/>
<path d="M4.10547 11.6777C4.25217 11.6777 4.37109 11.5588 4.37109 11.4121C4.37109 11.2654 4.25217 11.1465 4.10547 11.1465C3.95877 11.1465 3.83984 11.2654 3.83984 11.4121C3.83984 11.5588 3.95877 11.6777 4.10547 11.6777Z" fill="#E3DECB"/>
</g>
<defs>
<clipPath id="clip0_1_33">
<rect width="17" height="17" fill="white" transform="translate(0.386719 0.787109)"/>
</clipPath>
</defs>
</svg>
