<svg width="26" height="15" viewBox="0 0 26 15" fill="none" xmlns="http://www.w3.org/2000/svg">
<path d="M13 0.762695C8.03242 0.762695 3.52756 3.21774 0.203437 7.20539C-0.0678122 7.53208 -0.0678122 7.9885 0.203437 8.3152C3.52756 12.3077 8.03242 14.7627 13 14.7627C17.9676 14.7627 22.4724 12.3076 25.7966 8.32C26.0678 7.99331 26.0678 7.53689 25.7966 7.21019C22.4724 3.21774 17.9676 0.762695 13 0.762695ZM13.3563 12.692C10.0588 12.8794 7.33569 10.4243 7.54311 7.4408C7.71331 4.98095 9.92053 2.98713 12.6437 2.83339C15.9412 2.64602 18.6643 5.10106 18.4569 8.08459C18.2814 10.5396 16.0742 12.5335 13.3563 12.692ZM13.1915 10.4147C11.4151 10.5156 9.94712 9.1944 10.0641 7.58974C10.1545 6.26373 11.3459 5.19235 12.8138 5.10587C14.5903 5.00497 16.0582 6.32618 15.9412 7.93085C15.8455 9.26167 14.6541 10.333 13.1915 10.4147Z" fill="black"/>
</svg>
