<svg width="21" height="21" viewBox="0 0 21 21" fill="none" xmlns="http://www.w3.org/2000/svg">
<g clip-path="url(#clip0_1_295)">
<path d="M10.1221 0.90332C4.59928 0.90332 0.12207 5.38053 0.12207 10.9033C0.12207 16.4261 4.59928 20.9033 10.1221 20.9033C15.6449 20.9033 20.1221 16.4261 20.1221 10.9033C20.1159 5.38314 15.6423 0.909505 10.1221 0.90332ZM18.7707 14.4066L15.9268 14.8973C16.2523 13.7035 16.4281 12.4738 16.45 11.2367H19.4471C19.4095 12.3249 19.1805 13.3979 18.7707 14.4066ZM0.797038 11.2367H3.79411C3.81608 12.4738 3.99186 13.7035 4.31738 14.8973L1.47347 14.4066C1.06364 13.3979 0.834635 12.3249 0.797038 11.2367ZM1.47347 7.40007L4.31738 6.90934C3.99186 8.10319 3.81608 9.33285 3.79411 10.57H0.797038C0.834635 9.48177 1.06364 8.40869 1.47347 7.40007ZM10.4554 6.25537C11.6532 6.27067 12.848 6.37972 14.0288 6.58171L15.2054 6.78467C15.5669 8.01481 15.7614 9.28792 15.7837 10.57H10.4554V6.25537ZM14.1424 5.92464C12.9242 5.71647 11.6912 5.604 10.4554 5.5887V1.5887C12.3664 1.7723 14.0264 3.52197 14.9671 6.06836L14.1424 5.92464ZM9.78874 5.5887C8.5529 5.604 7.32031 5.71647 6.10205 5.92464L5.27702 6.06738C6.21777 3.52035 7.87777 1.77002 9.78874 1.58724V5.5887ZM6.21566 6.58171C7.39632 6.37972 8.59098 6.27067 9.78874 6.25537V10.57H4.46045C4.48275 9.28792 4.67725 8.01481 5.03874 6.78467L6.21566 6.58171ZM4.46045 11.2367H9.78874V15.5513C8.59098 15.536 7.39616 15.4269 6.21533 15.2249L5.03874 15.022C4.67725 13.7918 4.48275 12.5187 4.46045 11.2367ZM6.10173 15.882C7.31999 16.0905 8.55273 16.2035 9.78874 16.2197V20.2197C7.87777 20.036 6.21777 18.2863 5.27702 15.7399L6.10173 15.882ZM10.4554 16.2197C11.6912 16.2035 12.9238 16.0905 14.1421 15.882L14.9671 15.7393C14.0264 18.2863 12.3664 20.0366 10.4554 20.2194V16.2197ZM14.0285 15.2249C12.8478 15.4269 11.6532 15.536 10.4554 15.5513V11.2367H15.7837C15.7614 12.5187 15.5669 13.7918 15.2054 15.022L14.0285 15.2249ZM16.45 10.57C16.4281 9.33285 16.2523 8.10319 15.9268 6.90934L18.7707 7.40007C19.1805 8.40869 19.4095 9.48177 19.4471 10.57H16.45ZM18.4334 6.66536L15.7074 6.19499C15.2173 4.59619 14.3005 3.1613 13.0553 2.04492C15.3836 2.82194 17.3145 4.48063 18.4334 6.66536ZM7.1888 2.04492C5.94369 3.1613 5.02686 4.59619 4.53678 6.19499L1.81071 6.66536C2.92969 4.48063 4.86051 2.82194 7.1888 2.04492ZM1.81071 15.1413L4.53678 15.6117C5.02686 17.2104 5.94369 18.6453 7.1888 19.7617C4.86051 18.9847 2.92969 17.326 1.81071 15.1413ZM13.0553 19.7617C14.3005 18.6453 15.2173 17.2104 15.7074 15.6117L18.4334 15.1413C17.3145 17.326 15.3836 18.9847 13.0553 19.7617Z" fill="#00A300"/>
</g>
<defs>
<clipPath id="clip0_1_295">
<rect width="20" height="20" fill="white" transform="translate(0.12207 0.90332)"/>
</clipPath>
</defs>
</svg>
