<svg width="35" height="35" viewBox="0 0 35 35" fill="none" xmlns="http://www.w3.org/2000/svg">
<g clip-path="url(#clip0_1_2308)">
<path d="M16.4016 1C8.30556 1 4 6.26899 4 12.0142C4 14.6787 5.46596 18.0014 7.8126 19.0552C8.16894 19.2183 8.3628 19.1489 8.44219 18.8133C8.51235 18.5583 8.82068 17.3301 8.97023 16.7507C9.01639 16.5651 8.99238 16.4038 8.84468 16.2294C8.06554 15.3144 7.44703 13.6474 7.44703 12.0836C7.44703 8.07657 10.5839 4.18577 15.9215 4.18577C20.5373 4.18577 23.7664 7.23091 23.7664 11.5867C23.7664 16.5088 21.2019 19.914 17.8694 19.914C16.0249 19.914 14.6513 18.4439 15.087 16.6251C15.6132 14.4594 16.6453 12.1305 16.6453 10.5686C16.6453 9.16787 15.8661 8.00907 14.2746 8.00907C12.397 8.00907 10.8738 9.89728 10.8738 12.4324C10.8738 14.0431 11.435 15.1306 11.435 15.1306C11.435 15.1306 9.57766 22.751 9.2324 24.1742C8.64897 26.5837 9.31179 30.4857 9.36903 30.8214C9.40411 31.007 9.60905 31.0651 9.72352 30.9132C9.9063 30.6695 12.1514 27.4162 12.781 25.0648C13.0099 24.2079 13.9497 20.7334 13.9497 20.7334C14.5682 21.8678 16.3536 22.8185 18.2553 22.8185C23.9123 22.8185 28 17.7689 28 11.5024C27.9797 5.49458 22.9171 1 16.4016 1Z" fill="#D9D9D9"/>
</g>
<defs>
<clipPath id="clip0_1_2308">
<rect width="24" height="30" fill="white" transform="translate(4 1)"/>
</clipPath>
</defs>
</svg>
