<svg width="35" height="35" viewBox="0 0 35 35" fill="none" xmlns="http://www.w3.org/2000/svg">
<g clip-path="url(#clip0_1_2300)">
<mask id="mask0_1_2300" style="mask-type:luminance" maskUnits="userSpaceOnUse" x="0" y="0" width="35" height="35">
<path d="M35 0H0V35H35V0Z" fill="white"/>
</mask>
<g mask="url(#mask0_1_2300)">
<path d="M17.5 21.0889C19.4821 21.0889 21.0889 19.4821 21.0889 17.5C21.0889 15.518 19.4821 13.9111 17.5 13.9111C15.518 13.9111 13.9111 15.518 13.9111 17.5C13.9111 19.4821 15.518 21.0889 17.5 21.0889Z" fill="#D9D9D9"/>
<path d="M17.5 0.410156C8.06155 0.410156 0.410156 8.06155 0.410156 17.5C0.410156 26.9384 8.06155 34.5899 17.5 34.5899C26.9384 34.5899 34.5899 26.9384 34.5899 17.5C34.5899 8.06155 26.9384 0.410156 17.5 0.410156ZM28.0586 21.8436C27.9767 23.4683 27.5201 25.0705 26.336 26.242C25.1405 27.4246 23.5307 27.8653 21.8903 27.9464H13.1098C11.4692 27.8653 9.85961 27.4249 8.66407 26.242C7.47996 25.0705 7.02345 23.4683 6.94141 21.8436V13.1564C7.02345 11.5317 7.48002 9.92947 8.66407 8.75793C9.85961 7.57531 11.4694 7.13466 13.1098 7.05353H21.8902C23.5308 7.13466 25.1404 7.5751 26.3359 8.75793C27.5201 9.92947 27.9766 11.5317 28.0585 13.1564L28.0586 21.8436Z" fill="#D9D9D9"/>
<path d="M21.7792 9.03325C19.6405 8.97459 15.3598 8.97459 13.221 9.03325C12.1082 9.0638 10.8465 9.34086 10.0535 10.1878C9.22945 11.0683 8.91807 12.132 8.88649 13.3218C8.83098 15.4104 8.88649 21.6789 8.88649 21.6789C8.92264 22.8687 9.22945 23.9325 10.0535 24.8129C10.8465 25.6602 12.1082 25.9369 13.221 25.9675C15.3598 26.0261 19.6405 26.0261 21.7792 25.9675C22.8921 25.9369 24.1538 25.6599 24.9468 24.8129C25.7708 23.9325 26.0822 22.8689 26.1138 21.6789V13.3218C26.0822 12.132 25.7708 11.0683 24.9468 10.1878C24.1536 9.34059 22.8919 9.0638 21.7792 9.03325ZM17.4999 23.0631C16.3996 23.0631 15.3241 22.7368 14.4094 22.1256C13.4946 21.5144 12.7815 20.6457 12.3606 19.6292C11.9395 18.6127 11.8293 17.4942 12.044 16.4151C12.2587 15.336 12.7884 14.3449 13.5664 13.567C14.3443 12.789 15.3356 12.2591 16.4146 12.0446C17.4937 11.8299 18.6121 11.9401 19.6286 12.361C20.6451 12.7821 21.5138 13.495 22.125 14.4099C22.7364 15.3247 23.0626 16.4002 23.0626 17.5004C23.0626 18.9757 22.4765 20.3906 21.4333 21.4338C20.3901 22.477 18.9752 23.0631 17.4999 23.0631ZM23.0863 13.0859C22.8662 13.0858 22.6511 13.0205 22.4683 12.8982C22.2853 12.776 22.1428 12.6022 22.0585 12.3989C21.9744 12.1956 21.9524 11.9719 21.9953 11.7561C22.0383 11.5403 22.1444 11.3421 22.2999 11.1865C22.4555 11.0309 22.6538 10.925 22.8696 10.8821C23.0853 10.8392 23.309 10.8612 23.5123 10.9455C23.7156 11.0297 23.8894 11.1723 24.0115 11.3553C24.1338 11.5382 24.1991 11.7533 24.1991 11.9733C24.1991 12.1194 24.1703 12.2641 24.1143 12.3991C24.0584 12.5341 23.9764 12.6567 23.8731 12.7602C23.7697 12.8635 23.6471 12.9453 23.5121 13.0012C23.3771 13.0571 23.2323 13.0859 23.0863 13.0859Z" fill="#D9D9D9"/>
</g>
</g>
<defs>
<clipPath id="clip0_1_2300">
<rect width="35" height="35" fill="white"/>
</clipPath>
</defs>
</svg>
