<svg width="20" height="21" viewBox="0 0 20 21" fill="none" xmlns="http://www.w3.org/2000/svg">
<path d="M4.43242 12.8492L3.73625 15.4481L1.19176 15.502C0.431328 14.0915 0 12.4778 0 10.763C0 9.10473 0.403281 7.54098 1.11812 6.16406H1.11867L3.38398 6.57937L4.37633 8.83109C4.16863 9.4366 4.05543 10.0866 4.05543 10.763C4.05551 11.497 4.18848 12.2003 4.43242 12.8492Z" fill="#FBBB00"/>
<path d="M19.8252 8.89453C19.94 9.49945 19.9999 10.1242 19.9999 10.7627C19.9999 11.4786 19.9246 12.177 19.7812 12.8506C19.2944 15.1429 18.0224 17.1445 16.2604 18.561L16.2598 18.5605L13.4065 18.4149L13.0027 15.894C14.1719 15.2083 15.0857 14.1352 15.567 12.8506H10.2197V8.89453H15.645H19.8252Z" fill="#518EF8"/>
<path d="M16.2595 18.5602L16.2601 18.5607C14.5464 19.9382 12.3694 20.7623 9.99965 20.7623C6.19141 20.7623 2.88043 18.6338 1.19141 15.5014L4.43207 12.8486C5.27656 15.1025 7.45074 16.7069 9.99965 16.7069C11.0952 16.7069 12.1216 16.4107 13.0024 15.8937L16.2595 18.5602Z" fill="#28B446"/>
<path d="M16.383 3.06488L13.1434 5.71707C12.2319 5.14731 11.1544 4.81816 10 4.81816C7.39344 4.81816 5.17859 6.49617 4.37641 8.83082L1.11871 6.16379H1.11816C2.78246 2.955 6.1352 0.762695 10 0.762695C12.4264 0.762695 14.6511 1.62699 16.383 3.06488Z" fill="#F14336"/>
</svg>
