<svg width="130" height="87" viewBox="0 0 130 87" fill="none" xmlns="http://www.w3.org/2000/svg">
<path d="M51.1016 20.7012H78.9098V66.2948H51.1016V20.7012Z" fill="#FF5F00"/>
<path d="M53.9662 43.5021C53.9627 39.1118 54.9541 34.7783 56.8654 30.8294C58.7767 26.8806 61.5577 23.4199 64.998 20.7093C60.737 17.3477 55.6199 15.2574 50.2314 14.6771C44.843 14.0969 39.4006 15.0502 34.5263 17.428C29.652 19.8059 25.5425 23.5123 22.6674 28.1238C19.7923 32.7353 18.2676 38.0658 18.2676 43.506C18.2676 48.9462 19.7923 54.2767 22.6674 58.8882C25.5425 63.4997 29.652 67.2062 34.5263 69.584C39.4006 71.9619 44.843 72.9152 50.2314 72.3349C55.6199 71.7547 60.737 69.6643 64.998 66.3028C61.5566 63.5913 58.7749 60.1293 56.8636 56.179C54.9523 52.2286 53.9615 47.8935 53.9662 43.5019V43.5021Z" fill="#EB001B"/>
<path d="M111.733 43.5018C111.733 48.9424 110.208 54.2733 107.332 58.8849C104.456 63.4966 100.346 67.203 95.4713 69.5805C90.5964 71.958 85.1534 72.9107 79.7647 72.3296C74.3759 71.7485 69.2587 69.6571 64.998 66.2945C68.437 63.5814 71.2172 60.1198 73.1289 56.1708C75.0407 52.2217 76.034 47.8884 76.034 43.4977C76.034 39.1071 75.0407 34.7737 73.1289 30.8247C71.2172 26.8756 68.437 23.414 64.998 20.701C69.2587 17.3384 74.3759 15.247 79.7647 14.6659C85.1535 14.0848 90.5964 15.0374 95.4713 17.415C100.346 19.7925 104.456 23.4989 107.332 28.1106C110.208 32.7223 111.733 38.0531 111.733 43.4938V43.5018Z" fill="#F79E1B"/>
</svg>
