<svg width="101" height="57" viewBox="0 0 101 57" fill="none" xmlns="http://www.w3.org/2000/svg">
<path d="M40.4883 12.4199H60.3819V44.9119H40.4883V12.4199Z" fill="#FF5F00"/>
<path d="M42.5383 28.6686C42.5358 25.5399 43.245 22.4517 44.6123 19.6376C45.9796 16.8235 47.9691 14.3572 50.4302 12.4255C47.382 10.0299 43.7213 8.54016 39.8665 8.12666C36.0117 7.71316 32.1183 8.39256 28.6313 10.0871C25.1443 11.7817 22.2044 14.4231 20.1476 17.7094C18.0908 20.9958 17 24.7945 17 28.6715C17 32.5484 18.0908 36.3471 20.1476 39.6335C22.2044 42.9198 25.1443 45.5612 28.6313 47.2558C32.1183 48.9503 36.0117 49.6297 39.8665 49.2162C43.7213 48.8027 47.382 47.313 50.4302 44.9174C47.9683 42.9851 45.9784 40.5179 44.6111 37.7028C43.2438 34.8876 42.5349 31.7983 42.5383 28.6686Z" fill="#EB001B"/>
<path d="M83.863 28.6679C83.8629 32.5452 82.772 36.3441 80.7148 39.6306C78.6576 42.9171 75.7172 45.5584 72.2298 47.2527C68.7424 48.9471 64.8486 49.626 60.9935 49.2118C57.1385 48.7977 53.4777 47.3073 50.4297 44.911C52.8899 42.9775 54.8788 40.5106 56.2464 37.6964C57.6141 34.8821 58.3247 31.794 58.3247 28.665C58.3247 25.536 57.6141 22.4479 56.2464 19.6337C54.8788 16.8194 52.8899 14.3525 50.4297 12.4191C53.4777 10.0227 57.1385 8.5323 60.9936 8.1182C64.8486 7.7041 68.7424 8.383 72.2298 10.0773C75.7173 11.7716 78.6576 14.413 80.7148 17.6995C82.772 20.986 83.863 24.7849 83.863 28.6622V28.6679Z" fill="#F79E1B"/>
</svg>
