<svg width="18" height="19" viewBox="0 0 18 19" fill="none" xmlns="http://www.w3.org/2000/svg">
<g clip-path="url(#clip0_1_290)">
<path d="M9.00002 0.852539C4.03742 0.852539 2.41879e-05 4.48614 2.41879e-05 8.95254C2.41879e-05 10.5137 0.493824 12.026 1.43042 13.3337C1.25312 15.2948 0.777924 16.7507 0.0879242 17.4404C-0.00327581 17.5316 -0.0260758 17.6711 0.0315242 17.7863C0.0825242 17.8892 0.187524 17.9525 0.300024 17.9525C0.313824 17.9525 0.327624 17.9516 0.341724 17.9495C0.463224 17.9324 3.28562 17.5262 5.32712 16.3478C6.48632 16.8155 7.72112 17.0525 9.00002 17.0525C13.9626 17.0525 18 13.4189 18 8.95254C18 4.48614 13.9626 0.852539 9.00002 0.852539ZM4.80002 10.1525C4.13822 10.1525 3.60002 9.61434 3.60002 8.95254C3.60002 8.29074 4.13822 7.75254 4.80002 7.75254C5.46182 7.75254 6.00002 8.29074 6.00002 8.95254C6.00002 9.61434 5.46182 10.1525 4.80002 10.1525ZM9.00002 10.1525C8.33822 10.1525 7.80002 9.61434 7.80002 8.95254C7.80002 8.29074 8.33822 7.75254 9.00002 7.75254C9.66182 7.75254 10.2 8.29074 10.2 8.95254C10.2 9.61434 9.66182 10.1525 9.00002 10.1525ZM13.2 10.1525C12.5382 10.1525 12 9.61434 12 8.95254C12 8.29074 12.5382 7.75254 13.2 7.75254C13.8618 7.75254 14.4 8.29074 14.4 8.95254C14.4 9.61434 13.8618 10.1525 13.2 10.1525Z" fill="#00990A"/>
</g>
<defs>
<clipPath id="clip0_1_290">
<rect width="18" height="18" fill="white" transform="translate(0 0.402344)"/>
</clipPath>
</defs>
</svg>
