<svg width="255" height="46" viewBox="0 0 255 46" fill="none" xmlns="http://www.w3.org/2000/svg">
<path d="M188.842 39.1159V12.3337H193.166V14.3014C193.769 13.3176 194.918 12.6617 195.849 12.3337C196.779 12.0058 197.71 11.8965 198.695 11.8965C201.103 11.8965 203.622 12.7163 205.702 14.848C207.618 16.8156 208.603 19.2752 208.603 22.1174C208.603 23.4292 208.329 24.741 207.837 25.9435C207.345 27.2011 206.633 28.2943 205.757 29.2229C204.827 30.2073 203.732 30.9725 202.582 31.4639C201.377 31.9558 200.283 32.2291 198.859 32.2291C197.819 32.2291 196.779 32.0656 195.849 31.7372C194.918 31.4092 193.604 30.6998 193.111 29.8799V39.1717H188.842V39.1159ZM198.531 15.6684C196.944 15.6684 195.575 16.1603 194.481 17.3081C193.331 18.5106 192.893 20.205 192.893 21.954C192.893 23.7571 193.332 25.5614 194.426 26.7633C195.576 27.9663 196.944 28.403 198.587 28.403C200.229 28.403 201.597 27.7477 202.583 26.7087C203.733 25.5067 204.28 23.9211 204.28 22.1721C204.28 20.2591 203.733 18.6193 202.583 17.4169C201.597 16.3237 200.174 15.6684 198.531 15.6684ZM233.511 12.3337H238.054L243.966 26.108L249.495 12.3337H254.039L242.707 39.1159H238.218L241.831 30.644L233.511 12.3337ZM226.613 31.847V29.8241C226.121 30.644 224.807 31.4092 223.876 31.6825C222.891 32.0104 221.905 32.1744 220.866 32.1744C219.442 32.1744 218.347 31.9011 217.143 31.4092C215.993 30.9173 214.898 30.1526 213.968 29.1683C213.092 28.2396 212.381 27.1465 211.888 25.8888C211.395 24.6311 211.122 23.3745 211.122 22.0628C211.122 19.2206 212.107 16.761 214.023 14.7933C216.103 12.6617 218.676 11.8418 221.03 11.8418C222.015 11.8418 222.946 12.0058 223.876 12.2791C224.807 12.607 225.957 13.2629 226.558 14.2467V12.2791H230.883V31.7924H226.613V31.847ZM217.143 17.3622C215.993 18.5647 215.446 20.2591 215.446 22.1174C215.446 23.867 215.993 25.451 217.143 26.654C218.183 27.6925 219.497 28.3484 221.139 28.3484C222.782 28.3484 224.15 27.9106 225.3 26.7087C226.45 25.5067 226.832 23.7571 226.832 21.8988C226.832 20.2044 226.394 18.4554 225.245 17.2529C224.095 16.1051 222.727 15.6132 221.195 15.6132C219.497 15.6684 218.129 16.3237 217.143 17.3622ZM164.811 15.0666V31.4092H158.899L154.848 17.9634H154.739L154.958 31.4092H150.907V15.0666H157.038L160.87 28.021H160.924L160.706 15.0666H164.811ZM79.7439 31.5737L82.8094 15.0666H90.1447L93.2101 31.5737H88.7761L86.5318 16.5423H86.477L84.1779 31.5737H79.7439ZM114.559 15.0666L114.942 31.5737H110.782L110.672 16.7063H110.563L107.826 31.5737H103.611L100.874 16.7063H100.764L100.655 31.5737H96.4946L96.8778 15.0666H103.666L105.691 27.693H105.746L107.826 15.0666H114.559ZM140.451 29.0595C141.602 29.0595 141.984 28.2943 142.039 27.8565C142.094 27.693 142.094 27.4198 142.094 27.2011V15.0671H146.309V26.9278C146.309 27.2558 146.254 27.8565 146.254 28.021C145.98 31.0818 143.517 32.1203 140.451 32.1203C137.385 32.1203 134.977 31.1359 134.703 28.021C134.703 27.8565 134.648 27.2558 134.648 26.9278V15.0671H138.863V27.3099C138.863 27.5285 138.863 27.7477 138.918 27.9663C138.973 28.2943 139.302 29.0595 140.451 29.0595ZM72.7371 26.8732C72.9013 27.2552 72.8466 27.8018 72.7918 28.0751C72.6276 28.6217 72.2992 29.1683 71.1496 29.1683C70.1095 29.1683 69.5074 28.567 69.5074 27.693V26.108H65.0734V27.3645C65.0734 31.0818 67.9746 32.175 71.0949 32.175C74.1056 32.175 76.5689 31.1365 76.9521 28.4036C77.1711 26.9825 77.0069 26.0539 76.9521 25.6707C76.2405 22.2278 69.9453 21.1888 69.5074 19.2217C69.4526 18.8937 69.4526 18.5658 69.5074 18.3471C69.6169 17.8006 70 17.254 71.0401 17.254C72.0255 17.254 72.5729 17.8552 72.5729 18.7297V19.7682H76.6784V18.6204C76.6784 15.013 73.4487 14.4665 71.0949 14.4665C68.1389 14.4665 65.7303 15.4503 65.2923 18.1285C65.1829 18.8391 65.1829 19.495 65.3471 20.3695C66.004 23.8118 71.916 24.7415 72.7371 26.8732ZM126.547 26.8732C126.711 27.2552 126.657 27.7477 126.602 28.0751C126.493 28.6217 126.109 29.1683 125.015 29.1683C123.974 29.1683 123.372 28.567 123.372 27.693V26.108H118.993V27.3645C118.993 31.0272 121.894 32.1203 124.96 32.1203C127.916 32.1203 130.379 31.1359 130.762 28.403C130.981 26.9819 130.818 26.0533 130.762 25.7248C130.051 22.2819 123.865 21.2981 123.428 19.3851C123.318 19.0571 123.373 18.7292 123.428 18.5106C123.537 17.964 123.92 17.4174 124.906 17.4174C125.891 17.4174 126.438 18.0187 126.438 18.8932V19.9317H130.544V18.7839C130.544 15.2311 127.314 14.6845 125.015 14.6845C122.114 14.6845 119.705 15.6137 119.267 18.2919C119.158 19.0025 119.103 19.6584 119.322 20.4782C119.924 23.8118 125.726 24.7415 126.547 26.8732ZM174.993 28.895C176.197 28.895 176.58 28.1298 176.69 27.693C176.745 27.5285 176.745 27.2552 176.745 27.0907V24.6869H175.048V22.2814H180.905V26.7087C180.905 27.0366 180.905 27.2552 180.85 27.8018C180.576 30.808 177.948 31.9011 174.993 31.9011C172.091 31.9011 169.463 30.808 169.19 27.8018C169.135 27.2552 169.135 27.0366 169.135 26.7087V19.7671C169.135 19.4939 169.19 18.9473 169.19 18.674C169.573 15.5585 172.036 14.5747 174.993 14.5747C177.948 14.5747 180.522 15.5585 180.795 18.674C180.85 19.1659 180.85 19.7671 180.85 19.7671V20.3137H176.69V19.3845C176.69 19.3845 176.69 19.0019 176.635 18.7287C176.58 18.346 176.252 17.5262 174.993 17.5262C173.789 17.5262 173.46 18.346 173.351 18.7287C173.295 18.9473 173.295 19.2206 173.295 19.4939V27.0361C173.295 27.2547 173.295 27.4739 173.351 27.6373C173.351 28.1844 173.789 28.895 174.993 28.895Z" fill="white"/>
<path d="M46.7352 15.6132C46.1878 11.3499 44.655 7.46925 41.9727 4.62706C39.1262 1.94884 35.2396 0.418424 30.9699 -0.128152C26.8643 -0.674728 24.0725 -0.510755 24.0725 -0.510755C24.0725 -0.510755 21.2807 -0.62007 17.1752 -0.128152C12.9054 0.418424 9.01881 1.94884 6.17229 4.62706C3.48999 7.46925 1.95725 11.3499 1.40984 15.6132C0.862431 19.7125 0.971913 22.5001 0.971913 22.5001C0.971913 22.5001 0.862431 25.2876 1.3551 29.3869C1.90251 33.6497 3.43525 37.5309 6.11755 40.3731C8.96407 43.0513 12.8507 44.5812 17.1204 45.1278C21.226 45.6744 24.0178 45.5109 24.0178 45.5109C24.0178 45.5109 26.8096 45.6197 30.9151 45.1278C35.1849 44.5812 39.0715 43.0513 41.918 40.3731C44.6003 37.5315 46.133 33.6497 46.6805 29.3869C47.2279 25.2876 47.0636 22.5001 47.0636 22.5001C47.0636 22.5001 47.2826 19.7125 46.7352 15.6132Z" fill="#1E4BC6"/>
<path d="M9.45676 15.7772H13.6171C14.274 15.7772 14.8214 15.8865 15.3688 16.1052C15.9162 16.3238 16.3541 16.6517 16.7373 17.0343C17.1205 17.4169 17.4489 17.8542 17.6679 18.4008C17.8868 18.9474 17.9963 19.4939 17.9963 20.0952C17.9963 20.6964 17.8868 21.243 17.6679 21.7896C17.4489 22.3361 17.1205 22.7739 16.7373 23.156C16.3541 23.5381 15.8614 23.8671 15.3688 24.0846C14.8761 24.3033 14.274 24.4137 13.6171 24.4137H11.7559V27.8565H9.5115V15.7772H9.45676ZM11.7011 17.8548V22.282H13.4528C13.7813 22.282 14.1097 22.2274 14.3834 22.118C14.6571 22.0087 14.8761 21.8448 15.0951 21.6261C15.314 21.4075 15.4235 21.1889 15.533 20.9156C15.6425 20.6423 15.6972 20.369 15.6972 20.0411C15.6972 19.7131 15.6425 19.4398 15.533 19.1665C15.4235 18.8933 15.2593 18.6746 15.0951 18.456C14.8761 18.2374 14.6571 18.0734 14.3834 17.9641C14.1097 17.8548 13.7813 17.8001 13.4528 17.8001H11.7011V17.8548ZM23.1967 27.8565C22.5946 27.8565 22.0471 27.7478 21.445 27.5286C20.8976 27.31 20.3502 26.982 19.9123 26.6C19.4743 26.1622 19.0911 25.6702 18.8174 25.069C18.5437 24.4678 18.3795 23.7572 18.3795 22.992C18.3795 22.2268 18.489 21.5163 18.7627 20.915C19.0364 20.3138 19.4196 19.8219 19.8575 19.3846C20.2954 18.9474 20.8429 18.6741 21.3903 18.4554C21.9924 18.2368 22.5398 18.1275 23.1967 18.1275C23.8536 18.1275 24.4557 18.2368 24.9484 18.4554C25.4958 18.6741 25.9337 19.002 26.3169 19.3846V18.1275H28.5613V27.856H26.3169V26.4896C25.9885 26.9274 25.4958 27.2548 24.9484 27.5281C24.401 27.7478 23.8536 27.8565 23.1967 27.8565ZM23.5799 25.8348C24.0178 25.8348 24.401 25.7801 24.7294 25.6161C25.0579 25.4522 25.3863 25.2882 25.66 25.0149C25.9337 24.7416 26.098 24.4683 26.2622 24.1404C26.4264 23.8113 26.4812 23.4293 26.4812 23.0472C26.4812 22.6641 26.4264 22.2815 26.2622 21.9541C26.098 21.6261 25.9337 21.2982 25.66 21.0796C25.3863 20.8063 25.1126 20.6423 24.7294 20.4783C24.3463 20.2597 23.9631 20.205 23.5799 20.205C23.1967 20.205 22.8135 20.2597 22.4303 20.4237C22.0471 20.5876 21.7734 20.7516 21.4997 21.0249C21.226 21.2982 21.0071 21.5715 20.8976 21.8994C20.7334 22.2274 20.6786 22.61 20.6786 22.9926C20.6786 23.3752 20.7334 23.7572 20.8976 24.0852C21.0618 24.4142 21.2808 24.7416 21.4997 25.0149C21.7734 25.2882 22.1019 25.4516 22.4303 25.6161C22.7588 25.7249 23.142 25.8348 23.5799 25.8348ZM31.6815 18.1822L34.4186 24.7957L36.9366 18.1822H39.2905L33.5427 32.2838H31.2436L33.269 27.4198L29.3277 18.1822H31.6815Z" fill="white"/>
</svg>
