<svg width="35" height="35" viewBox="0 0 35 35" fill="none" xmlns="http://www.w3.org/2000/svg">
<path d="M33.6345 17.627C33.5531 15.714 31.9242 14.1995 29.9288 14.2393C29.0329 14.2792 28.2185 14.6379 27.6076 15.1958C24.8385 13.3226 21.54 12.3262 18.1601 12.2465L19.7483 4.79348L25.0014 5.82973C25.1643 7.145 26.3452 8.10153 27.6891 7.94211C29.0329 7.78269 30.0102 6.62687 29.8473 5.3116C29.6845 3.99637 28.5035 3.03983 27.1597 3.19925C26.386 3.27896 25.6937 3.71738 25.3272 4.35507L19.341 3.19925C18.9338 3.11954 18.5266 3.35867 18.4452 3.75723L16.6534 12.0871C13.2327 12.127 9.93424 13.1632 7.08369 15.0364C5.65842 13.7212 3.378 13.761 2.03417 15.1958C0.690341 16.5908 0.731063 18.8227 2.19706 20.1379C2.48211 20.3771 2.80789 20.6162 3.17439 20.7756C3.13367 21.1343 3.13367 21.493 3.17439 21.8119C3.17439 27.1924 9.56774 31.5765 17.4678 31.5765C25.3679 31.5765 31.7613 27.2323 31.7613 21.8119C31.802 21.4532 31.802 21.0945 31.7613 20.7756C32.9015 20.2177 33.6752 18.9821 33.6345 17.627ZM9.07908 20.0582C9.07908 18.743 10.1786 17.6669 11.5224 17.6669C12.8662 17.6669 13.9657 18.743 13.9657 20.0582C13.9657 21.3735 12.8662 22.4496 11.5224 22.4496C10.1786 22.4496 9.07908 21.3735 9.07908 20.0582ZM23.3318 26.6743C21.5808 27.9497 19.4632 28.6272 17.3049 28.5076C15.1467 28.5873 12.9884 27.9497 11.2781 26.6743C11.0337 26.3953 11.0745 25.9967 11.3595 25.7576C11.6038 25.5583 11.9296 25.5583 12.2147 25.7576C13.6807 26.7938 15.4724 27.3518 17.3049 27.2721C19.1374 27.3518 20.9292 26.8736 22.4359 25.7974C22.721 25.5583 23.1282 25.5583 23.4133 25.7974C23.6576 26.0764 23.6576 26.475 23.4133 26.754V26.6743H23.3318ZM22.9246 22.5691C21.5808 22.5691 20.4813 21.493 20.4813 20.1778C20.4813 18.8626 21.5808 17.7865 22.9246 17.7865C24.2684 17.7865 25.3679 18.8626 25.3679 20.1778C25.4086 21.493 24.3906 22.609 23.006 22.6489C22.9653 22.6489 22.9246 22.6489 22.8839 22.6489L22.9246 22.5691Z" fill="#D9D9D9"/>
</svg>
