<svg width="208" height="57" viewBox="0 0 208 57" fill="none" xmlns="http://www.w3.org/2000/svg">
<path d="M147.63 41.0634V22.1079H150.705V23.5006C151.134 22.8043 151.951 22.34 152.613 22.1079C153.275 21.8758 153.937 21.7985 154.637 21.7985C156.35 21.7985 158.141 22.3787 159.621 23.8874C160.984 25.2801 161.684 27.0209 161.684 29.0325C161.684 29.9609 161.49 30.8893 161.14 31.7404C160.789 32.6305 160.283 33.4042 159.66 34.0615C158.998 34.7582 158.22 35.2998 157.402 35.6475C156.545 35.9957 155.767 36.1891 154.754 36.1891C154.014 36.1891 153.275 36.0735 152.613 35.841C151.951 35.6089 151.017 35.1067 150.666 34.5265V41.1029H147.629V41.0634H147.63ZM154.521 24.4681C153.392 24.4681 152.419 24.8163 151.64 25.6286C150.822 26.4797 150.511 27.6789 150.511 28.9168C150.511 30.193 150.823 31.47 151.601 32.3207C152.419 33.1721 153.392 33.4812 154.56 33.4812C155.728 33.4812 156.702 33.0174 157.403 32.282C158.221 31.4313 158.61 30.3091 158.61 29.0712C158.61 27.7172 158.221 26.5567 157.403 25.7056C156.701 24.9319 155.689 24.4681 154.521 24.4681ZM179.4 22.1079H182.631L186.836 31.8568L190.769 22.1079H194L185.941 41.0634H182.748L185.318 35.0673L179.4 22.1079ZM174.494 35.9187V34.487C174.144 35.0673 173.209 35.6089 172.548 35.8023C171.847 36.0344 171.146 36.1504 170.406 36.1504C169.393 36.1504 168.615 35.957 167.759 35.6089C166.941 35.2607 166.162 34.7195 165.5 34.0228C164.877 33.3655 164.371 32.5919 164.021 31.7017C163.671 30.8116 163.476 29.9222 163.476 28.9938C163.476 26.9822 164.177 25.2414 165.539 23.8487C167.019 22.34 168.849 21.7598 170.523 21.7598C171.224 21.7598 171.886 21.8758 172.548 22.0693C173.209 22.3014 174.027 22.7656 174.455 23.4619V22.0693H177.531V35.88H174.494V35.9187ZM167.759 25.6669C166.941 26.518 166.551 27.7172 166.551 29.0325C166.551 30.2708 166.941 31.3919 167.759 32.2433C168.498 32.9783 169.433 33.4425 170.601 33.4425C171.769 33.4425 172.742 33.1327 173.56 32.282C174.378 31.4313 174.65 30.193 174.65 28.8777C174.65 27.6785 174.339 26.4406 173.521 25.5896C172.703 24.7772 171.73 24.429 170.64 24.429C169.433 24.4681 168.459 24.9319 167.759 25.6669ZM130.538 24.0422V35.6089H126.333L123.452 26.0925H123.374L123.529 35.6089H120.648V24.0422H125.009L127.734 33.2108H127.773L127.618 24.0422H130.538ZM70.034 35.7253L72.2143 24.0422H77.4315L79.6118 35.7253H76.4581L74.8618 25.0867H74.8229L73.1876 35.7253H70.034ZM94.7961 24.0422L95.0691 35.7253H92.1101L92.0321 25.2027H91.9541L90.0071 35.7253H87.0091L85.0626 25.2027H84.9847L84.9068 35.7253H81.9478L82.2204 24.0422H87.0481L88.4891 32.9787H88.5281L90.0071 24.0422H94.7961ZM113.212 33.9458C114.03 33.9458 114.302 33.4042 114.341 33.0944C114.38 32.9787 114.38 32.7853 114.38 32.6305V24.0426H117.378V32.4371C117.378 32.6692 117.339 33.0944 117.339 33.2108C117.144 35.3771 115.392 36.1121 113.211 36.1121C111.031 36.1121 109.318 35.4154 109.123 33.2108C109.123 33.0944 109.084 32.6692 109.084 32.4371V24.0426H112.082V32.7075C112.082 32.8623 112.082 33.0174 112.121 33.1721C112.161 33.4042 112.394 33.9458 113.212 33.9458ZM65.0504 32.3984C65.1672 32.6688 65.1283 33.0557 65.0893 33.2491C64.9725 33.636 64.7389 34.0228 63.9213 34.0228C63.1816 34.0228 62.7533 33.5973 62.7533 32.9787V31.8568H59.5996V32.7462C59.5996 35.3771 61.6631 36.1508 63.8824 36.1508C66.0238 36.1508 67.7758 35.4158 68.0483 33.4816C68.2041 32.4758 68.0873 31.8185 68.0483 31.5474C67.5422 29.1106 63.0648 28.3752 62.7533 26.983C62.7143 26.7509 62.7143 26.5188 62.7533 26.364C62.8312 25.9772 63.1037 25.5903 63.8434 25.5903C64.5443 25.5903 64.9336 26.0159 64.9336 26.6348V27.3698H67.8537V26.5574C67.8537 24.0043 65.5565 23.6174 63.8824 23.6174C61.7799 23.6174 60.0668 24.3137 59.7553 26.2093C59.6775 26.7122 59.6775 27.1764 59.7943 27.7954C60.2615 30.2317 64.4664 30.8897 65.0504 32.3984ZM103.323 32.3984C103.439 32.6688 103.4 33.0174 103.362 33.2491C103.284 33.636 103.011 34.0228 102.232 34.0228C101.493 34.0228 101.064 33.5973 101.064 32.9787V31.8568H97.9501V32.7462C97.9501 35.3385 100.013 36.1121 102.193 36.1121C104.296 36.1121 106.048 35.4154 106.321 33.4812C106.476 32.4754 106.36 31.8182 106.321 31.5857C105.814 29.1489 101.415 28.4526 101.104 27.0986C101.026 26.8665 101.065 26.6344 101.104 26.4797C101.182 26.0928 101.454 25.706 102.155 25.706C102.856 25.706 103.245 26.1315 103.245 26.7505V27.4855H106.165V26.6731C106.165 24.1586 103.868 23.7718 102.233 23.7718C100.169 23.7718 98.4561 24.4294 98.1451 26.3249C98.0671 26.8278 98.0281 27.2921 98.1841 27.8723C98.6121 30.2317 102.739 30.8897 103.323 32.3984ZM137.779 33.8294C138.635 33.8294 138.908 33.2878 138.986 32.9787C139.025 32.8623 139.025 32.6688 139.025 32.5524V30.851H137.818V29.1485H141.984V32.282C141.984 32.5141 141.984 32.6688 141.945 33.0557C141.75 35.1833 139.881 35.957 137.779 35.957C135.715 35.957 133.847 35.1833 133.652 33.0557C133.613 32.6688 133.613 32.5141 133.613 32.282V27.369C133.613 27.1756 133.652 26.7888 133.652 26.5954C133.924 24.3903 135.676 23.694 137.779 23.694C139.881 23.694 141.712 24.3903 141.906 26.5954C141.945 26.9435 141.945 27.369 141.945 27.369V27.7559H138.986V27.0983C138.986 27.0983 138.986 26.8275 138.947 26.634C138.908 26.3632 138.675 25.783 137.779 25.783C136.923 25.783 136.689 26.3632 136.611 26.634C136.572 26.7888 136.572 26.9822 136.572 27.1756V32.5137C136.572 32.6684 136.572 32.8236 136.611 32.9392C136.611 33.3265 136.923 33.8294 137.779 33.8294Z" fill="white"/>
<path d="M46.5563 24.4283C46.167 21.4109 45.0768 18.6643 43.1691 16.6527C41.1445 14.7571 38.3802 13.674 35.3433 13.2871C32.4232 12.9003 30.4376 13.0163 30.4376 13.0163C30.4376 13.0163 28.452 12.939 25.5319 13.2871C22.495 13.674 19.7307 14.7571 17.7061 16.6527C15.7983 18.6643 14.7082 21.4109 14.3189 24.4283C13.9295 27.3296 14.0074 29.3025 14.0074 29.3025C14.0074 29.3025 13.9295 31.2755 14.2799 34.1768C14.6693 37.1938 15.7594 39.9408 17.6672 41.9524C19.6918 43.8479 22.4561 44.9307 25.493 45.3176C28.413 45.7044 30.3987 45.5888 30.3987 45.5888C30.3987 45.5888 32.3843 45.6657 35.3044 45.3176C38.3412 44.9307 41.1056 43.8479 43.1301 41.9524C45.0379 39.9412 46.1281 37.1938 46.5174 34.1768C46.9067 31.2755 46.7899 29.3025 46.7899 29.3025C46.7899 29.3025 46.9457 27.3296 46.5563 24.4283Z" fill="#1E4BC6"/>
<path d="M20.041 24.5449H23C23.4672 24.5449 23.8566 24.6223 24.2459 24.777C24.6353 24.9318 24.9467 25.1639 25.2193 25.4347C25.4918 25.7055 25.7254 26.015 25.8811 26.4018C26.0369 26.7886 26.1148 27.1755 26.1148 27.601C26.1148 28.0266 26.0369 28.4134 25.8811 28.8002C25.7254 29.1871 25.4918 29.497 25.2193 29.7674C24.9467 30.0378 24.5963 30.2706 24.2459 30.4246C23.8955 30.5793 23.4672 30.6575 23 30.6575H21.6763V33.0942H20.08V24.5449H20.041ZM21.6373 26.0153V29.1488H22.8832C23.1168 29.1488 23.3504 29.1101 23.5451 29.0327C23.7398 28.9554 23.8955 28.8393 24.0512 28.6846C24.207 28.5298 24.2848 28.3751 24.3627 28.1817C24.4406 27.9883 24.4795 27.7948 24.4795 27.5627C24.4795 27.3306 24.4406 27.1372 24.3627 26.9438C24.2848 26.7503 24.168 26.5956 24.0512 26.4409C23.8955 26.2861 23.7398 26.1701 23.5451 26.0927C23.3504 26.0153 23.1168 25.9767 22.8832 25.9767H21.6373V26.0153ZM29.8135 33.0942C29.3852 33.0942 28.9959 33.0172 28.5676 32.8621C28.1783 32.7074 27.7889 32.4753 27.4774 32.2049C27.166 31.895 26.8934 31.5468 26.6988 31.1213C26.5041 30.6958 26.3873 30.1929 26.3873 29.6513C26.3873 29.1097 26.4652 28.6068 26.6598 28.1813C26.8545 27.7558 27.127 27.4076 27.4385 27.0981C27.75 26.7886 28.1393 26.5952 28.5287 26.4405C28.9569 26.2857 29.3463 26.2084 29.8135 26.2084C30.2807 26.2084 30.709 26.2857 31.0594 26.4405C31.4487 26.5952 31.7602 26.8273 32.0327 27.0981V26.2084H33.629V33.0938H32.0327V32.1267C31.7991 32.4366 31.4487 32.6683 31.0594 32.8617C30.67 33.0172 30.2807 33.0942 29.8135 33.0942ZM30.086 31.6633C30.3975 31.6633 30.67 31.6246 30.9037 31.5086C31.1373 31.3925 31.3709 31.2764 31.5655 31.083C31.7602 30.8896 31.877 30.6962 31.9938 30.4641C32.1106 30.2312 32.1495 29.9608 32.1495 29.6904C32.1495 29.4192 32.1106 29.1484 31.9938 28.9167C31.877 28.6846 31.7602 28.4525 31.5655 28.2977C31.3709 28.1043 31.1762 27.9883 30.9037 27.8722C30.6311 27.7175 30.3586 27.6788 30.086 27.6788C29.8135 27.6788 29.541 27.7175 29.2684 27.8335C28.9959 27.9496 28.8012 28.0656 28.6065 28.259C28.4119 28.4525 28.2561 28.6459 28.1783 28.878C28.0615 29.1101 28.0225 29.3809 28.0225 29.6517C28.0225 29.9225 28.0615 30.1929 28.1783 30.425C28.2951 30.6579 28.4508 30.8896 28.6065 31.083C28.8012 31.2764 29.0348 31.3921 29.2684 31.5086C29.502 31.5855 29.7746 31.6633 30.086 31.6633ZM35.8483 26.2471L37.795 30.9279L39.586 26.2471H41.2601L37.1721 36.2277H35.5368L36.9774 32.7851L34.1741 26.2471H35.8483Z" fill="white"/>
</svg>
