<svg width="14" height="14" viewBox="0 0 14 14" fill="none" xmlns="http://www.w3.org/2000/svg">
<path d="M13.1042 12.9494L9.74325 9.56517C10.6234 8.58669 11.1642 7.29264 11.1642 5.86867C11.1637 2.82254 8.71176 0.353516 5.68685 0.353516C2.66195 0.353516 0.209961 2.82254 0.209961 5.86867C0.209961 8.9148 2.66195 11.3838 5.68685 11.3838C6.99382 11.3838 8.19255 10.9212 9.13413 10.1522L12.5082 13.5497C12.6726 13.7155 12.9395 13.7155 13.1039 13.5497C13.2686 13.384 13.2686 13.1151 13.1042 12.9494ZM5.68685 10.5353C3.12745 10.5353 1.05266 8.44598 1.05266 5.86867C1.05266 3.29136 3.12745 1.20205 5.68685 1.20205C8.24627 1.20205 10.321 3.29136 10.321 5.86867C10.321 8.44598 8.24627 10.5353 5.68685 10.5353Z" fill="#93ACD3" fill-opacity="0.5"/>
</svg>
