<svg width="35" height="35" viewBox="0 0 35 35" fill="none" xmlns="http://www.w3.org/2000/svg">
<g clip-path="url(#clip0_1_2288)">
<mask id="mask0_1_2288" style="mask-type:luminance" maskUnits="userSpaceOnUse" x="0" y="0" width="35" height="35">
<path d="M35 0H0V35H35V0Z" fill="white"/>
</mask>
<g mask="url(#mask0_1_2288)">
<path d="M17.5 0C7.83649 0 0 7.83649 0 17.5C0 27.1635 7.83649 35 17.5 35C27.1635 35 35 27.1635 35 17.5C35 7.83649 27.1635 0 17.5 0ZM27.9806 23.1504C27.8546 23.4441 27.2879 23.8614 25.3061 24.1674C25.1437 24.1923 25.081 24.4035 24.9843 24.846C24.9491 25.007 24.9135 25.1653 24.8646 25.3317C24.8224 25.4759 24.7325 25.5434 24.581 25.5434H24.5565C24.4513 25.5434 24.3023 25.5244 24.113 25.4873C23.7773 25.422 23.4011 25.3616 22.9222 25.3616C22.6427 25.3616 22.3535 25.3856 22.0627 25.4337C21.468 25.533 20.9631 25.8893 20.4285 26.2674C19.6518 26.8169 18.8498 27.3838 17.5999 27.3838C17.5454 27.3838 17.4923 27.382 17.4386 27.3795C17.4044 27.3825 17.3689 27.3838 17.3334 27.3838C16.084 27.3838 15.2821 26.8172 14.5067 26.2685C13.9713 25.8903 13.4658 25.533 12.8702 25.4337C12.5797 25.3856 12.2905 25.3616 12.0115 25.3616C11.5076 25.3616 11.1108 25.4393 10.8205 25.4959C10.6446 25.5304 10.4924 25.56 10.3767 25.56C10.256 25.56 10.1255 25.5339 10.0686 25.3397C10.0192 25.1712 9.98368 25.0086 9.94896 24.8505C9.86031 24.4452 9.79755 24.1957 9.62773 24.1696C7.6461 23.8635 7.07866 23.446 6.95236 23.1498C6.93474 23.1076 6.92406 23.0649 6.92192 23.0232C6.91551 22.9092 6.99588 22.8085 7.10857 22.7904C10.1546 22.2888 11.5207 19.1751 11.5776 19.0429C11.579 19.0397 11.5805 19.036 11.5823 19.0325C11.7688 18.6547 11.8051 18.3264 11.6913 18.0576C11.4822 17.5651 10.8003 17.3485 10.349 17.2055C10.2387 17.1703 10.134 17.1374 10.0512 17.1045C9.15055 16.7486 9.07578 16.3833 9.11128 16.1972C9.17163 15.8797 9.59568 15.6583 9.93881 15.6583C10.0325 15.6583 10.1153 15.6751 10.185 15.7077C10.5904 15.8973 10.9554 15.9937 11.2707 15.9937C11.706 15.9937 11.8962 15.8108 11.9194 15.7867C11.9078 15.5806 11.8943 15.3651 11.8804 15.1427C11.7896 13.7028 11.677 11.9129 12.133 10.8916C13.4985 7.82982 16.3942 7.59163 17.2495 7.59163C17.2714 7.59163 17.6244 7.58789 17.6244 7.58789H17.6749C18.5318 7.58789 21.4344 7.82608 22.8005 10.8897C23.2563 11.9117 23.1437 13.7028 23.0529 15.1418L23.0489 15.2046C23.0363 15.4049 23.0241 15.5996 23.0139 15.7862C23.0357 15.8087 23.2107 15.9767 23.6051 15.9918C23.9054 15.9804 24.2502 15.8845 24.6287 15.7077C24.7392 15.6556 24.8625 15.6447 24.9461 15.6447C25.0745 15.6447 25.204 15.6698 25.3117 15.7144L25.3186 15.7173C25.6243 15.8257 25.8249 16.0399 25.8292 16.2642C25.8332 16.4751 25.6719 16.7924 24.882 17.1045C24.8 17.1368 24.6954 17.1699 24.5843 17.2052C24.1325 17.3483 23.451 17.5651 23.2419 18.0572C23.1279 18.3264 23.1642 18.654 23.3508 19.0319C23.3524 19.0357 23.3543 19.0392 23.3559 19.0429C23.4126 19.1751 24.777 22.2878 27.8249 22.7901C27.9373 22.8085 28.018 22.9092 28.0116 23.0227C28.0092 23.0654 27.9987 23.1084 27.9806 23.1504Z" fill="#D9D9D9"/>
</g>
</g>
<defs>
<clipPath id="clip0_1_2288">
<rect width="35" height="35" fill="white"/>
</clipPath>
</defs>
</svg>
