<svg width="14" height="14" viewBox="0 0 14 14" fill="none" xmlns="http://www.w3.org/2000/svg">
<g clip-path="url(#clip0_1_19)">
<path d="M7.76425 1.83721C7.91128 1.64233 7.88764 1.22899 7.86671 0.864364C7.86591 0.848647 7.86504 0.833276 7.86416 0.817665C7.65806 0.797986 7.44943 0.787109 7.23828 0.787109C6.42917 0.787109 5.65497 0.936167 4.94043 1.20638C5.45015 1.45134 6.23916 1.87295 7.11616 2.49591C7.41539 2.2384 7.64107 2.00068 7.76425 1.83721Z" fill="white"/>
<path d="M11.058 5.54653C10.7376 5.58272 10.4674 5.6353 10.2363 5.70904C11.3409 7.63766 11.7716 10.0743 11.877 11.8395C12.9713 10.7244 13.6663 9.21709 13.732 7.54743C12.978 6.62059 11.9791 5.44204 11.058 5.54653Z" fill="white"/>
<path d="M4.4909 3.88131C5.26703 3.71981 5.9962 3.32917 6.57759 2.91684C5.36471 2.08148 4.35309 1.64795 4.15186 1.56543C2.89353 2.24567 1.88659 3.32949 1.30078 4.64271C2.06221 4.33933 2.88685 4.18498 3.69681 4.03459C3.95884 3.98593 4.2297 3.93564 4.4909 3.88131Z" fill="white"/>
<path d="M8.9834 4.07024C9.05267 4.13987 9.12177 4.21068 9.19038 4.28283C9.44358 4.54864 9.67332 4.83936 9.88399 5.14694C10.1908 5.0311 10.552 4.94895 10.9844 4.90007C12.0031 4.78484 12.9089 5.59182 13.6864 6.48026C13.5197 5.13343 12.942 3.91446 12.0813 2.95312C11.6115 3.00974 11.0878 3.10567 10.5539 3.26496C10.2038 3.36955 9.64606 3.65373 8.9834 4.07024Z" fill="white"/>
<path d="M8.12847 7.42686C8.39507 6.52387 8.70387 5.87294 9.30218 5.45042C9.12262 5.19265 8.92939 4.95073 8.72007 4.73096C8.62324 4.62926 8.52532 4.53105 8.42698 4.43457C6.02656 6.06846 2.73845 9.06984 2.43945 11.6703C3.43751 12.7623 4.80341 13.5112 6.34106 13.7236C6.90093 12.609 7.42788 10.343 7.7411 8.99527C7.8916 8.34795 8.02148 7.78904 8.12847 7.42686Z" fill="white"/>
<path d="M5.40666 5.99481C6.24361 5.22357 7.12748 4.53197 7.9359 3.97614C7.66643 3.73773 7.39613 3.51796 7.13078 3.31641C6.45931 3.82115 5.58018 4.31829 4.62324 4.51732C4.35525 4.57309 4.08083 4.62407 3.81554 4.67332C2.79333 4.86314 1.81208 5.04699 0.986878 5.5074C0.826173 6.07307 0.738281 6.66946 0.738281 7.28665C0.738281 8.66731 1.17011 9.94654 1.90412 10.9992C2.37964 9.11648 4.01068 7.28117 5.40666 5.99481Z" fill="white"/>
<path d="M8.4959 3.60518C9.26919 3.11219 9.93586 2.77131 10.3684 2.6422C10.7568 2.52619 11.1379 2.44171 11.4987 2.38009C10.6649 1.65555 9.6457 1.13915 8.52057 0.914062C8.54552 1.36802 8.5564 1.86641 8.28331 2.22851C8.15356 2.40046 7.93405 2.63629 7.64844 2.89215C7.92815 3.10987 8.21241 3.3473 8.4959 3.60518Z" fill="white"/>
<path d="M8.75134 7.61113C8.64986 7.95493 8.52184 8.50534 8.37374 9.1426C7.93643 11.0242 7.51798 12.7079 7.0293 13.7816C7.09868 13.7839 7.16804 13.7869 7.23795 13.7869C8.7528 13.7869 10.1454 13.2673 11.2505 12.3986C11.2069 10.5514 10.7641 7.93858 9.64858 5.99902C9.21596 6.32057 8.9831 6.8264 8.75134 7.61113Z" fill="white"/>
</g>
<defs>
<clipPath id="clip0_1_19">
<rect width="13" height="13" fill="white" transform="translate(0.735352 0.787109)"/>
</clipPath>
</defs>
</svg>
