<svg width="35" height="35" viewBox="0 0 35 35" fill="none" xmlns="http://www.w3.org/2000/svg">
<g clip-path="url(#clip0_1_1864)">
<mask id="mask0_1_1864" style="mask-type:luminance" maskUnits="userSpaceOnUse" x="0" y="0" width="35" height="35">
<path d="M35 0H0V35H35V0Z" fill="white"/>
</mask>
<g mask="url(#mask0_1_1864)">
<path d="M17.5 35C27.1673 35 35 27.1673 35 17.5C35 7.8327 27.1673 0 17.5 0C7.8327 0 0 7.8327 0 17.5C0 27.1673 7.8327 35 17.5 35ZM8.00771 17.1208L24.8807 10.6152C25.6638 10.3323 26.3477 10.8063 26.094 11.9905L26.0954 11.989L23.2225 25.5238C23.0095 26.4833 22.4393 26.7167 21.6417 26.2646L17.2667 23.0402L15.1565 25.0732C14.9232 25.3065 14.7263 25.5033 14.2742 25.5033L14.5848 21.051L22.6932 13.7258C23.046 13.4152 22.6143 13.2402 22.1492 13.5493L12.129 19.8582L7.80938 18.5107C6.87167 18.2132 6.85125 17.5729 8.00771 17.1208Z" fill="#D9D9D9"/>
</g>
</g>
<defs>
<clipPath id="clip0_1_1864">
<rect width="35" height="35" fill="white"/>
</clipPath>
</defs>
</svg>
