<svg width="35" height="35" viewBox="0 0 35 35" fill="none" xmlns="http://www.w3.org/2000/svg">
<path d="M32.8348 8.77685C30.8373 8.77685 28.9944 8.11513 27.5144 6.99882C25.817 5.71914 24.5974 3.84199 24.1668 1.67842C24.0602 1.14384 24.0027 0.592188 23.9973 0.0268555H18.2914V15.6183L18.2845 24.1584C18.2845 26.4416 16.7977 28.3775 14.7366 29.0584C14.1385 29.256 13.4925 29.3497 12.8198 29.3127C11.9613 29.2655 11.1567 29.0064 10.4573 28.5881C8.96915 27.6981 7.96016 26.0834 7.93282 24.2364C7.88976 21.3495 10.2236 18.9959 13.1083 18.9959C13.6777 18.9959 14.2247 19.0888 14.7366 19.2577V14.9962V13.4642C14.1966 13.3842 13.647 13.3426 13.0912 13.3426C9.9337 13.3426 6.98057 14.6551 4.86964 17.0196C3.27414 18.8066 2.3171 21.0864 2.16944 23.4769C1.97599 26.6173 3.12511 29.6025 5.35362 31.8051C5.68107 32.1284 6.02491 32.4285 6.38448 32.7054C8.29512 34.1757 10.631 34.9729 13.0912 34.9729C13.647 34.9729 14.1966 34.9318 14.7366 34.8519C17.0349 34.5114 19.1553 33.4594 20.8289 31.8051C22.8851 29.7727 24.0212 27.0747 24.0335 24.2028L24.0041 11.4497C24.9851 12.2064 26.0576 12.8326 27.2088 13.3187C28.9991 14.0741 30.8974 14.4568 32.8511 14.4562V10.3129V8.77549L32.8348 8.77685Z" fill="#D9D9D9"/>
</svg>
