<svg width="14" height="8" viewBox="0 0 14 8" fill="none" xmlns="http://www.w3.org/2000/svg">
<path fill-rule="evenodd" clip-rule="evenodd" d="M0.148329 6.85747C0.101756 6.81103 0.0648022 6.75587 0.0395834 6.69513C0.0143646 6.63439 0.00137653 6.56927 0.00136319 6.5035C0.00134984 6.43773 0.0143115 6.37261 0.0395056 6.31186C0.0646997 6.25111 0.101631 6.19593 0.148185 6.14947L6.14697 0.148253C6.1934 0.101681 6.24857 0.0647269 6.30931 0.0395082C6.37005 0.0142894 6.43517 0.00130131 6.50094 0.00128796C6.5667 0.00127461 6.63183 0.0142363 6.69258 0.0394304C6.75333 0.0646245 6.80851 0.101556 6.85497 0.14811L12.8562 6.14689C12.9501 6.24076 13.0029 6.36809 13.0029 6.50086C13.0029 6.63364 12.9502 6.76099 12.8563 6.85489C12.7625 6.9488 12.6351 7.00157 12.5024 7.0016C12.3696 7.00162 12.2422 6.9489 12.1483 6.85504L6.50118 1.20918L0.856329 6.85733C0.809893 6.9039 0.754725 6.94085 0.693985 6.96607C0.633245 6.99129 0.568126 7.00428 0.502359 7.00429C0.436591 7.00431 0.371468 6.99135 0.310717 6.96615C0.249967 6.94096 0.194784 6.90403 0.148329 6.85747Z" fill="white"/>
</svg>
