<svg width="35" height="35" viewBox="0 0 35 35" fill="none" xmlns="http://www.w3.org/2000/svg">
<g clip-path="url(#clip0_1_2294)">
<mask id="mask0_1_2294" style="mask-type:luminance" maskUnits="userSpaceOnUse" x="0" y="0" width="35" height="35">
<path d="M35 0H0V35H35V0Z" fill="white"/>
</mask>
<g mask="url(#mask0_1_2294)">
<path d="M35 6.64781C33.6984 7.21875 32.3115 7.59719 30.8656 7.78094C32.3531 6.89281 33.4885 5.49719 34.0222 3.815C32.6354 4.64187 31.104 5.22594 29.4721 5.55188C28.1553 4.14969 26.2784 3.28125 24.2309 3.28125C20.2584 3.28125 17.0603 6.50563 17.0603 10.4585C17.0603 11.0272 17.1084 11.574 17.2266 12.0947C11.2612 11.8037 5.98281 8.94469 2.43687 4.58938C1.81781 5.66344 1.45469 6.89281 1.45469 8.21625C1.45469 10.7013 2.73437 12.904 4.64187 14.1794C3.48906 14.1575 2.35813 13.8228 1.4 13.2956C1.4 13.3175 1.4 13.346 1.4 13.3744C1.4 16.8612 3.88719 19.7575 7.14875 20.4247C6.56469 20.5844 5.92813 20.661 5.2675 20.661C4.80813 20.661 4.34437 20.6347 3.90906 20.5385C4.83875 23.38 7.47687 25.469 10.6137 25.5369C8.1725 27.4465 5.07281 28.5972 1.71719 28.5972C1.12875 28.5972 0.564375 28.571 0 28.4987C3.17844 30.5485 6.94531 31.7187 11.0075 31.7187C24.2112 31.7187 31.43 20.7813 31.43 11.3006C31.43 10.9835 31.419 10.6772 31.4037 10.3731C32.8278 9.3625 34.0244 8.10031 35 6.64781Z" fill="#D9D9D9"/>
</g>
</g>
<defs>
<clipPath id="clip0_1_2294">
<rect width="35" height="35" fill="white"/>
</clipPath>
</defs>
</svg>
