<svg width="27" height="28" viewBox="0 0 27 28" fill="none" xmlns="http://www.w3.org/2000/svg">
<g id="user (5) 1" clip-path="url(#clip0_1_344)">
<g id="Layer 2">
<g id="user">
<path id="background" d="M13.5 27.7178C20.9559 27.7178 27 21.6736 27 14.2178C27 6.76193 20.9559 0.717773 13.5 0.717773C6.04419 0.717773 3.05176e-05 6.76193 3.05176e-05 14.2178C3.05176e-05 21.6736 6.04419 27.7178 13.5 27.7178Z" fill="#2196F3"/>
<g id="Group">
<path id="Vector" d="M17.4203 21.3369H9.57976C9.09864 21.3369 8.63722 21.1458 8.29702 20.8056C7.95682 20.4654 7.76569 20.004 7.76569 19.5229V18.2994C7.76625 17.1608 8.21898 16.0689 9.02432 15.264C9.82967 14.459 10.9217 14.0068 12.0604 14.0068H14.9397C16.0786 14.0068 17.1709 14.4592 17.9763 15.2645C18.7817 16.0698 19.2342 17.1621 19.2344 18.301V19.5244C19.2339 20.0053 19.0426 20.4663 18.7025 20.8061C18.3623 21.146 17.9011 21.3369 17.4203 21.3369Z" fill="white"/>
<path id="Vector_2" d="M13.5 13.2084C15.1872 13.2084 16.5549 11.8407 16.5549 10.1535C16.5549 8.46636 15.1872 7.09863 13.5 7.09863C11.8129 7.09863 10.4451 8.46636 10.4451 10.1535C10.4451 11.8407 11.8129 13.2084 13.5 13.2084Z" fill="white"/>
</g>
</g>
</g>
</g>
<defs>
<clipPath id="clip0_1_344">
<rect width="27" height="27" fill="white" transform="translate(3.05176e-05 0.717773)"/>
</clipPath>
</defs>
</svg>
