<svg width="35" height="35" viewBox="0 0 35 35" fill="none" xmlns="http://www.w3.org/2000/svg">
<path d="M29.0733 6.3525C27.0394 5.37588 24.8583 4.65632 22.5778 4.24416C22.5363 4.2362 22.4948 4.2561 22.4734 4.29582C22.1929 4.81795 21.8822 5.49903 21.6646 6.0344C19.2118 5.65009 16.7716 5.65009 14.369 6.0344C14.1514 5.48716 13.8294 4.81795 13.5477 4.29582C13.5262 4.2574 13.4848 4.23751 13.4433 4.24416C11.164 4.65495 8.98294 5.37451 6.94769 6.3525C6.93005 6.36045 6.91497 6.3737 6.90493 6.39091C2.76787 12.859 1.6345 19.168 2.19046 25.3989C2.19296 25.4293 2.20935 25.4585 2.23197 25.477C4.96149 27.5747 7.60556 28.8482 10.2004 29.6923C10.242 29.7056 10.286 29.6898 10.3124 29.6539C10.9262 28.7767 11.4734 27.8517 11.9425 26.8791C11.9702 26.8221 11.9438 26.7545 11.8872 26.7319C11.0193 26.3875 10.1929 25.9674 9.39786 25.4903C9.33497 25.4519 9.32992 25.3578 9.38782 25.3127C9.55511 25.1816 9.72246 25.0451 9.88221 24.9073C9.91112 24.882 9.95139 24.8767 9.98536 24.8926C15.2079 27.3879 20.862 27.3879 26.0229 24.8926C26.0569 24.8754 26.0971 24.8808 26.1273 24.9059C26.2871 25.0437 26.4544 25.1816 26.6229 25.3126C26.6808 25.3577 26.677 25.4519 26.6142 25.4903C25.8192 25.9766 24.9928 26.3874 24.1236 26.7306C24.067 26.7531 24.0418 26.822 24.0696 26.8789C24.5488 27.8504 25.096 28.7753 25.6984 29.6525C25.7236 29.6897 25.7688 29.7056 25.8104 29.6923C28.4178 28.8482 31.062 27.5747 33.7914 25.4769C33.8153 25.4585 33.8305 25.4306 33.8329 25.4001C34.4983 18.1966 32.7185 11.9392 29.1147 6.39215C29.106 6.3737 29.0909 6.36045 29.0733 6.3525ZM12.7226 21.605C11.1502 21.605 9.8546 20.0944 9.8546 18.239C9.8546 16.3838 11.125 14.8732 12.7226 14.8732C14.3326 14.8732 15.6156 16.3971 15.5904 18.239C15.5904 20.0944 14.3199 21.605 12.7226 21.605ZM23.3261 21.605C21.7539 21.605 20.4583 20.0944 20.4583 18.239C20.4583 16.3838 21.7287 14.8732 23.3261 14.8732C24.9362 14.8732 26.2192 16.3971 26.1941 18.239C26.1941 20.0944 24.9362 21.605 23.3261 21.605Z" fill="#D9D9D9"/>
</svg>
