<svg width="101" height="57" viewBox="0 0 101 57" fill="none" xmlns="http://www.w3.org/2000/svg">
<g clip-path="url(#clip0_320_264)">
<mask id="mask0_320_264" style="mask-type:luminance" maskUnits="userSpaceOnUse" x="12" y="-9" width="77" height="77">
<path d="M89 -9H12V68H89V-9Z" fill="white"/>
</mask>
<g mask="url(#mask0_320_264)">
<path d="M40.2344 40.5605L44.1455 18.5605H50.2566L46.4677 40.5605H40.2344Z" fill="#959FC4"/>
<path d="M40.2344 40.5605L45.2455 18.5605H50.2566L46.4677 40.5605H40.2344Z" fill="white"/>
<path d="M68.5887 18.8049C67.3665 18.316 65.411 17.8271 62.9665 17.8271C56.8554 17.8271 52.4554 20.8827 52.4554 25.2827C52.4554 28.5827 55.511 30.2938 57.9554 31.3938C60.3999 32.4938 61.1332 33.2271 61.1332 34.2049C61.1332 35.6715 59.1776 36.4049 57.4665 36.4049C55.0221 36.4049 53.6776 36.0382 51.5999 35.1827L50.7443 34.816L49.8887 39.8271C51.3554 40.4382 54.0443 41.0493 56.8554 41.0493C63.3332 41.0493 67.611 37.9938 67.611 33.3493C67.611 30.7827 66.0221 28.8271 62.3554 27.2382C60.1554 26.1382 58.811 25.5271 58.811 24.4271C58.811 23.4493 59.911 22.4715 62.3554 22.4715C64.4332 22.4715 65.8999 22.8382 66.9999 23.3271L67.611 23.5715L68.5887 18.8049Z" fill="#959FC4"/>
<path d="M68.5887 18.8049C67.3665 18.316 65.411 17.8271 62.9665 17.8271C56.8554 17.8271 53.5554 20.8827 53.5554 25.2827C53.5554 28.5827 55.511 30.2938 57.9554 31.3938C60.3999 32.4938 61.1332 33.2271 61.1332 34.2049C61.1332 35.6715 59.1776 36.4049 57.4665 36.4049C55.0221 36.4049 53.6776 36.0382 51.5999 35.1827L50.7443 34.816L49.8887 39.8271C51.3554 40.4382 54.0443 41.0493 56.8554 41.0493C63.3332 41.0493 67.611 37.9938 67.611 33.3493C67.611 30.7827 66.0221 28.8271 62.3554 27.2382C60.1554 26.1382 58.811 25.5271 58.811 24.4271C58.811 23.4493 59.911 22.4715 62.3554 22.4715C64.4332 22.4715 65.8999 22.8382 66.9999 23.3271L67.611 23.5715L68.5887 18.8049Z" fill="white"/>
<path d="M79.1004 18.5605C77.6337 18.5605 76.5337 18.6827 75.9226 20.1494L66.7559 40.5605H73.3559L74.5782 36.8938H82.4004L83.1337 40.5605H89.0004L83.867 18.5605H79.1004ZM76.2893 33.2272C76.6559 32.1272 78.7337 26.7494 78.7337 26.7494C78.7337 26.7494 79.2226 25.4049 79.5893 24.5494L79.9559 26.6272C79.9559 26.6272 81.1782 32.1272 81.4226 33.3494H76.2893V33.2272Z" fill="#959FC4"/>
<path d="M80.567 18.5605C79.1004 18.5605 78.0004 18.6827 77.3893 20.1494L66.7559 40.5605H73.3559L74.5782 36.8938H82.4004L83.1337 40.5605H89.0004L83.867 18.5605H80.567ZM76.2893 33.2272C76.7782 32.0049 78.7337 26.7494 78.7337 26.7494C78.7337 26.7494 79.2226 25.4049 79.5893 24.5494L79.9559 26.6272C79.9559 26.6272 81.1782 32.1272 81.4226 33.3494H76.2893V33.2272Z" fill="white"/>
<path d="M28.9889 33.9614L28.3778 30.7836C27.2778 27.117 23.7334 23.0836 19.8223 21.1281L25.3222 40.6837H31.9222L41.8222 18.6836H35.2222L28.9889 33.9614Z" fill="#959FC4"/>
<path d="M28.9889 33.9614L28.3778 30.7836C27.2778 27.117 23.7334 23.0836 19.8223 21.1281L25.3222 40.6837H31.9222L41.8222 18.6836H36.4445L28.9889 33.9614Z" fill="white"/>
<path d="M12 18.5605L13.1 18.8049C20.9222 20.6383 26.3 25.2827 28.3778 30.7827L26.1778 20.3938C25.8111 18.9272 24.7111 18.5605 23.3666 18.5605H12Z" fill="#FFBC00"/>
<path d="M12 18.5605C19.8222 20.3938 26.3 25.1605 28.3778 30.6605L26.3 21.9827C25.9333 20.5161 24.7111 19.6605 23.3666 19.6605L12 18.5605Z" fill="#F7981D"/>
<path d="M12 18.5605C19.8222 20.3938 26.3 25.1605 28.3778 30.6605L26.9111 25.8938C26.5444 24.4272 26.0555 22.9605 24.3444 22.3494L12 18.5605Z" fill="#ED7C00"/>
<path d="M35.1008 33.2281L30.9453 29.0726L28.9897 33.717L28.5008 30.6615C27.4008 26.9948 23.8564 22.9615 19.9453 21.0059L25.4453 40.5615H32.0453L35.1008 33.2281Z" fill="white"/>
<path d="M46.4677 40.5614L41.2121 35.1836L40.2344 40.5614H46.4677Z" fill="white"/>
<path d="M60.5239 32.9834C61.0128 33.4722 61.2573 33.8389 61.135 34.3278C61.135 35.7945 59.1795 36.5278 57.4684 36.5278C55.0239 36.5278 53.6795 36.1611 51.6017 35.3056L50.7462 34.9389L49.8906 39.95C51.3573 40.5611 54.0462 41.1722 56.8573 41.1722C60.7684 41.1722 63.9462 40.0722 65.7795 38.1167L60.5239 32.9834Z" fill="white"/>
<path d="M67.6133 40.5619H73.3577L74.5799 36.8953H82.4021L83.1355 40.5619H89.0021L86.9244 31.6397L79.591 24.5508L79.9577 26.5064C79.9577 26.5064 81.1799 32.0064 81.4244 33.2286H76.291C76.7799 32.0064 78.7355 26.7508 78.7355 26.7508C78.7355 26.7508 79.2244 25.4064 79.591 24.5508" fill="white"/>
</g>
</g>
<defs>
<clipPath id="clip0_320_264">
<rect width="101" height="57" fill="white"/>
</clipPath>
</defs>
</svg>
