<svg width="34" height="34" viewBox="0 0 34 34" fill="none" xmlns="http://www.w3.org/2000/svg">
<rect width="34" height="34" fill="white"/>
<path d="M33.2995 8.64813C32.9077 7.2216 31.7593 6.09708 30.3029 5.71296C27.6423 5 16.9996 5 16.9996 5C16.9996 5 6.35736 5 3.69676 5.68593C2.2684 6.06964 1.09197 7.2218 0.700172 8.64813C0 11.2536 0 16.6571 0 16.6571C0 16.6571 0 22.0879 0.700172 24.6662C1.09238 26.0925 2.24038 27.2169 3.69696 27.6011C6.38538 28.3143 17 28.3143 17 28.3143C17 28.3143 27.6423 28.3143 30.3029 27.6283C31.7595 27.2444 32.9077 26.1199 33.2998 24.6936C33.9999 22.0879 33.9999 16.6845 33.9999 16.6845C33.9999 16.6845 34.0278 11.2536 33.2995 8.64813ZM13.6113 21.6491V11.6652L22.4611 16.6571L13.6113 21.6491Z" fill="#D9D9D9"/>
</svg>
