<svg width="35" height="25" viewBox="0 0 35 25" fill="none" xmlns="http://www.w3.org/2000/svg">
<path d="M34.2789 3.85288C33.8756 2.37569 32.6934 1.21124 31.1942 0.813474C28.4553 0.0751953 17.4996 0.0751953 17.4996 0.0751953C17.4996 0.0751953 6.54435 0.0751953 3.80549 0.785484C2.33512 1.18282 1.12409 2.3759 0.720766 3.85288C0 6.55092 0 12.1463 0 12.1463C0 12.1463 0 17.7699 0.720766 20.4397C1.12451 21.9167 2.30628 23.0812 3.8057 23.4789C6.57319 24.2174 17.5 24.2174 17.5 24.2174C17.5 24.2174 28.4553 24.2174 31.1942 23.5071C32.6936 23.1096 33.8756 21.9451 34.2793 20.4682C34.9999 17.7699 34.9999 12.1747 34.9999 12.1747C34.9999 12.1747 35.0287 6.55092 34.2789 3.85288ZM14.0116 17.3155V6.97709L23.1217 12.1463L14.0116 17.3155Z" fill="#D9D9D9"/>
</svg>
